<?xml version="1.0" encoding="UTF-8"?>
<!DOCTYPE svg PUBLIC "-//W3C//DTD SVG 1.1//EN" "http://www.w3.org/Graphics/SVG/1.1/DTD/svg11.dtd">
<svg xmlns="http://www.w3.org/2000/svg" version="1.1" width="700px" height="900px" style="shape-rendering:geometricPrecision; text-rendering:geometricPrecision; image-rendering:optimizeQuality; fill-rule:evenodd; clip-rule:evenodd" xmlns:xlink="http://www.w3.org/1999/xlink">
<g><path style="opacity:0.978" fill="#e96c1d" d="M 257.5,210.5 C 259.823,211.238 261.989,212.905 264,215.5C 265.943,215.041 267.276,216.041 268,218.5C 268.718,217.549 269.551,217.383 270.5,218C 271.667,219.833 273.167,221.333 275,222.5C 275.333,222.167 275.667,221.833 276,221.5C 279.355,224.427 283.188,226.26 287.5,227C 286.66,228.666 287.16,228.833 289,227.5C 289.915,228.328 290.581,229.328 291,230.5C 291.333,230.167 291.667,229.833 292,229.5C 293.243,231.833 294.909,232.5 297,231.5C 299.25,232.708 301.417,234.041 303.5,235.5C 305.156,233.978 306.323,234.311 307,236.5C 307.333,236.167 307.667,235.833 308,235.5C 310.269,237.619 312.769,238.286 315.5,237.5C 316.197,239.385 317.197,239.718 318.5,238.5C 323.276,241.654 328.443,242.654 334,241.5C 335.904,243.154 337.904,243.487 340,242.5C 346,245.167 352,245.167 358,242.5C 360.096,243.487 362.096,243.154 364,241.5C 369.557,242.654 374.724,241.654 379.5,238.5C 380.803,239.718 381.803,239.385 382.5,237.5C 383.167,237.833 383.833,238.167 384.5,238.5C 384.833,237.833 385.167,237.167 385.5,236.5C 386.086,236.709 386.586,237.043 387,237.5C 389.76,235.326 392.593,234.326 395.5,234.5C 397.394,233.952 399.06,232.952 400.5,231.5C 401.086,231.709 401.586,232.043 402,232.5C 404.414,230.709 406.914,229.043 409.5,227.5C 410.086,227.709 410.586,228.043 411,228.5C 412.601,226.028 414.601,225.028 417,225.5C 423.519,221.189 429.353,217.522 434.5,214.5C 435.833,213.067 437.333,211.733 439,210.5C 439.333,210.833 439.667,211.167 440,211.5C 441.085,209.627 442.418,207.96 444,206.5C 444.333,207.167 444.667,207.833 445,208.5C 445.667,207.167 446.333,205.833 447,204.5C 447.333,204.833 447.667,205.167 448,205.5C 448.442,203.321 449.442,202.655 451,203.5C 454,200.5 457,197.5 460,194.5C 460.333,194.833 460.667,195.167 461,195.5C 462.763,192.98 464.763,190.647 467,188.5C 467.333,188.833 467.667,189.167 468,189.5C 470.295,186.203 472.962,183.203 476,180.5C 476.333,180.833 476.667,181.167 477,181.5C 487.093,171.749 496.593,161.916 505.5,152C 505.167,151.667 504.833,151.333 504.5,151C 507.131,148.023 510.131,145.523 513.5,143.5C 513.736,144.247 514.07,145.08 514.5,146C 512.699,146.317 512.366,146.984 513.5,148C 511.699,148.317 511.366,148.984 512.5,150C 510.028,151.601 509.028,153.601 509.5,156C 507.323,160.021 504.656,163.688 501.5,167C 501.833,167.333 502.167,167.667 502.5,168C 500.257,170.488 498.257,173.154 496.5,176C 496.5,177 496.5,178 496.5,179C 494.297,182.928 491.963,186.094 489.5,188.5C 488.167,188.833 488.167,189.167 489.5,189.5C 488.446,192.134 486.446,194.634 483.5,197C 483.833,197.333 484.167,197.667 484.5,198C 481.7,200.065 480.033,202.398 479.5,205C 478.672,205.915 477.672,206.581 476.5,207C 476.833,207.333 477.167,207.667 477.5,208C 475.68,208.979 474.513,210.479 474,212.5C 473.086,211.346 472.253,211.513 471.5,213C 472.345,214.558 471.679,215.558 469.5,216C 469.833,216.333 470.167,216.667 470.5,217C 468.605,219.806 466.272,222.14 463.5,224C 463.833,224.333 464.167,224.667 464.5,225C 457.721,232.955 450.054,240.788 441.5,248.5C 437.035,253.81 432.368,258.31 427.5,262C 426.552,262.483 425.552,262.649 424.5,262.5C 424.5,263.5 424.5,264.5 424.5,265.5C 420.038,267.882 416.205,270.548 413,273.5C 412.667,273.167 412.333,272.833 412,272.5C 409,274.833 406,277.167 403,279.5C 402,279.5 401,279.5 400,279.5C 398.903,281.053 397.57,282.386 396,283.5C 395.586,283.043 395.086,282.709 394.5,282.5C 392.028,285.074 389.362,286.407 386.5,286.5C 384.003,287.701 381.669,288.701 379.5,289.5C 378.833,288.167 378.167,288.167 377.5,289.5C 375.61,289.297 374.11,289.963 373,291.5C 372.667,291.167 372.333,290.833 372,290.5C 371.395,292.481 370.395,292.815 369,291.5C 367.372,293.712 365.372,294.046 363,292.5C 353.667,295.167 344.333,295.167 335,292.5C 332.628,294.046 330.628,293.712 329,291.5C 328.586,291.957 328.086,292.291 327.5,292.5C 325.026,291.68 322.693,290.68 320.5,289.5C 319.833,288.167 319.167,288.167 318.5,289.5C 316.02,288.758 313.687,287.758 311.5,286.5C 309.114,286.499 306.78,285.499 304.5,283.5C 303.811,282.226 302.977,282.226 302,283.5C 298.657,280.213 295.157,277.88 291.5,276.5C 291.167,275.167 290.833,275.167 290.5,276.5C 288.709,275.517 287.209,274.184 286,272.5C 284.442,273.345 283.442,272.679 283,270.5C 282.086,271.654 281.253,271.487 280.5,270C 281.34,268.334 280.84,268.167 279,269.5C 274.008,264.877 269.008,260.211 264,255.5C 263.667,255.833 263.333,256.167 263,256.5C 248.32,242.205 235.154,227.371 223.5,212C 223.833,211.667 224.167,211.333 224.5,211C 220.826,208.664 218.159,205.997 216.5,203C 216.5,202 216.5,201 216.5,200C 214.321,199.558 213.655,198.558 214.5,197C 210.121,192.917 206.454,188.25 203.5,183C 203.5,182 203.5,181 203.5,180C 200.844,178.997 199.844,177.33 200.5,175C 199.672,174.085 198.672,173.419 197.5,173C 197.5,172 197.5,171 197.5,170C 195.083,167.985 193.416,165.985 192.5,164C 192.833,163.667 193.167,163.333 193.5,163C 192.386,161.43 191.053,160.097 189.5,159C 190.468,156.263 189.468,154.263 186.5,153C 186.5,152 186.5,151 186.5,150C 185.167,148.667 183.833,147.333 182.5,146C 183.292,143.664 184.625,143.164 186.5,144.5C 188.967,147.468 191.633,150.302 194.5,153C 194.167,153.333 193.833,153.667 193.5,154C 198.487,156.316 201.821,159.649 203.5,164C 209.333,170.413 215.333,175.747 221.5,180C 228.606,188.162 236.273,194.829 244.5,200C 243.346,200.914 243.513,201.747 245,202.5C 245.333,202.167 245.667,201.833 246,201.5C 249.748,204.622 253.581,207.622 257.5,210.5 Z"/></g>
<g><path style="opacity:0.004" fill="#fe0000" d="M 169.5,156.5 C 168.833,155.167 168.833,155.167 169.5,156.5 Z"/></g>
<g><path style="opacity:0.995" fill="#f6b800" d="M 522.5,177.5 C 521.167,178.167 521.167,178.833 522.5,179.5C 522.082,182.09 521.082,184.423 519.5,186.5C 519.833,187.167 520.167,187.833 520.5,188.5C 519.833,188.833 519.167,189.167 518.5,189.5C 518.833,190.167 519.167,190.833 519.5,191.5C 518.305,194.724 516.971,197.891 515.5,201C 515.735,201.873 516.069,202.707 516.5,203.5C 515.14,207.907 513.807,212.24 512.5,216.5C 511.246,218.357 511.246,220.357 512.5,222.5C 510.862,223.705 510.529,225.038 511.5,226.5C 508.845,231.638 508.178,237.305 509.5,243.5C 507.843,246.089 507.509,248.756 508.5,251.5C 507.833,254.167 507.167,256.833 506.5,259.5C 507.813,266.329 507.813,273.162 506.5,280C 508.713,287.419 509.546,294.919 509,302.5C 512.181,310.652 514.681,319.319 516.5,328.5C 518.258,331.263 519.258,333.93 519.5,336.5C 521.483,338.754 522.483,341.087 522.5,343.5C 523.786,345.877 525.452,348.044 527.5,350C 527.167,350.333 526.833,350.667 526.5,351C 528.825,353.291 531.158,355.624 533.5,358C 533.167,358.333 532.833,358.667 532.5,359C 539.635,365.818 546.802,373.318 554,381.5C 554.333,381.167 554.667,380.833 555,380.5C 558,383.5 561,386.5 564,389.5C 565.558,388.655 566.558,389.321 567,391.5C 567.333,391.167 567.667,390.833 568,390.5C 569.763,392.719 571.763,394.719 574,396.5C 574.333,396.167 574.667,395.833 575,395.5C 576.039,396.71 577.206,397.71 578.5,398.5C 580.744,399.301 582.744,400.634 584.5,402.5C 585.086,402.291 585.586,401.957 586,401.5C 588.015,403.917 590.015,405.584 592,406.5C 592.333,406.167 592.667,405.833 593,405.5C 594.667,406.833 596.333,408.167 598,409.5C 598.333,409.167 598.667,408.833 599,408.5C 600.973,409.64 602.807,410.973 604.5,412.5C 605.086,412.291 605.586,411.957 606,411.5C 608.364,413.363 610.864,415.029 613.5,416.5C 614.086,416.291 614.586,415.957 615,415.5C 616.78,416.639 618.614,417.639 620.5,418.5C 622.771,418.367 624.938,419.367 627,421.5C 628.406,420.332 629.572,420.665 630.5,422.5C 631.086,422.291 631.586,421.957 632,421.5C 635.473,422.903 638.806,424.57 642,426.5C 643.876,424.877 645.21,425.21 646,427.5C 646.333,427.167 646.667,426.833 647,426.5C 648.33,427.582 649.83,428.249 651.5,428.5C 655.834,428.733 659.834,429.733 663.5,431.5C 664.672,432.705 666.005,432.705 667.5,431.5C 668.192,432.025 668.692,432.692 669,433.5C 670.714,432.075 672.047,432.408 673,434.5C 673.333,434.167 673.667,433.833 674,433.5C 676.289,434.986 678.789,435.986 681.5,436.5C 684.068,435.727 686.401,435.727 688.5,436.5C 690.046,437.684 691.713,438.684 693.5,439.5C 692.473,441.024 690.973,441.691 689,441.5C 672.002,442.738 655.002,442.738 638,441.5C 631.764,439.357 625.431,439.024 619,440.5C 617.188,440.507 615.688,439.84 614.5,438.5C 612.031,440.007 609.865,439.673 608,437.5C 606.293,438.138 604.46,438.138 602.5,437.5C 595.455,437.399 588.789,436.066 582.5,433.5C 580.983,432.265 579.316,432.265 577.5,433.5C 574.812,432.487 572.146,431.487 569.5,430.5C 568.328,429.295 566.995,429.295 565.5,430.5C 562.457,429.126 559.457,427.793 556.5,426.5C 555.833,425.167 555.167,425.167 554.5,426.5C 552.299,425.748 549.966,424.748 547.5,423.5C 544.554,423.29 541.72,421.957 539,419.5C 538.667,419.833 538.333,420.167 538,420.5C 535.589,419.435 533.422,418.101 531.5,416.5C 531.167,415.167 530.833,415.167 530.5,416.5C 528.284,415.797 526.451,414.464 525,412.5C 524.667,412.833 524.333,413.167 524,413.5C 522.43,412.386 521.097,411.053 520,409.5C 519,409.5 518,409.5 517,409.5C 516.623,408.058 515.79,407.058 514.5,406.5C 514.167,405.167 513.833,405.167 513.5,406.5C 510.094,403.847 506.427,400.847 502.5,397.5C 499.002,393.853 494.835,390.187 490,386.5C 488.376,383.32 486.209,380.486 483.5,378C 483.833,377.667 484.167,377.333 484.5,377C 483.21,374.658 481.21,372.324 478.5,370C 479.634,368.984 479.301,368.317 477.5,368C 477.957,367.586 478.291,367.086 478.5,366.5C 475.926,364.028 474.593,361.362 474.5,358.5C 473.862,356.201 472.862,354.034 471.5,352C 471.833,351.667 472.167,351.333 472.5,351C 470.21,350.21 469.877,348.876 471.5,347C 470.303,344.411 469.303,341.744 468.5,339C 469.479,337.221 469.146,335.555 467.5,334C 467.5,321.333 467.5,308.667 467.5,296C 468.446,291.05 469.779,286.217 471.5,281.5C 471.32,280.446 470.987,279.446 470.5,278.5C 471.84,274.81 473.174,271.143 474.5,267.5C 475.705,266.328 475.705,264.995 474.5,263.5C 476.385,262.803 476.718,261.803 475.5,260.5C 476.18,259.14 476.847,257.807 477.5,256.5C 477.922,252.836 479.256,248.836 481.5,244.5C 482.653,243.687 482.653,242.687 481.5,241.5C 482.952,240.06 483.952,238.394 484.5,236.5C 485.833,235.833 485.833,235.167 484.5,234.5C 485.5,232.5 486.5,230.5 487.5,228.5C 488.774,227.811 488.774,226.977 487.5,226C 489.301,225.683 489.634,225.016 488.5,224C 489.748,222.6 490.748,221.1 491.5,219.5C 492.774,218.811 492.774,217.977 491.5,217C 493.616,215.829 494.282,214.329 493.5,212.5C 494.167,212.167 494.833,211.833 495.5,211.5C 495.291,210.914 494.957,210.414 494.5,210C 496.063,209.241 497.063,208.074 497.5,206.5C 498.096,203.527 499.763,200.694 502.5,198C 502.167,197.667 501.833,197.333 501.5,197C 503.833,193.333 506.167,189.667 508.5,186C 508.167,185.667 507.833,185.333 507.5,185C 508.614,183.43 509.947,182.097 511.5,181C 511.167,180.667 510.833,180.333 510.5,180C 511.79,177.708 513.457,175.708 515.5,174C 514.655,172.442 515.321,171.442 517.5,171C 517.5,170 517.5,169 517.5,168C 518.685,166.647 520.019,165.48 521.5,164.5C 522.641,163.575 522.641,162.741 521.5,162C 523.749,160.255 525.416,158.088 526.5,155.5C 527.451,154.674 528.451,154.508 529.5,155C 528.167,156 528.167,157 529.5,158C 528.67,159.747 527.67,161.413 526.5,163C 526.645,163.772 526.978,164.439 527.5,165C 525.519,165.605 525.185,166.605 526.5,168C 524.487,170.853 523.154,174.02 522.5,177.5 Z"/></g>
<g><path style="opacity:0.004" fill="#fe0000" d="M 172.5,164.5 C 171.833,165.167 171.833,165.167 172.5,164.5 Z"/></g>
<g><path style="opacity:0.004" fill="#fe0000" d="M 338.5,174.5 C 337.833,173.167 337.833,173.167 338.5,174.5 Z"/></g>
<g><path style="opacity:0.974" fill="#e96b1d" d="M 359.5,174.5 C 361.411,174.574 362.578,175.574 363,177.5C 364.016,176.366 364.683,176.699 365,178.5C 365.333,178.167 365.667,177.833 366,177.5C 371.008,182.377 374.174,187.377 375.5,192.5C 376.365,195.1 377.032,197.767 377.5,200.5C 376.828,203.512 376.161,206.512 375.5,209.5C 372.714,220.101 365.547,226.767 354,229.5C 351,228.167 348,228.167 345,229.5C 342.031,228.607 339.364,227.274 337,225.5C 336.667,225.833 336.333,226.167 336,226.5C 334.333,225.267 332.833,223.933 331.5,222.5C 331.167,221.167 330.833,221.167 330.5,222.5C 329.071,219.506 326.737,216.673 323.5,214C 323.833,213.667 324.167,213.333 324.5,213C 322.968,210.966 321.635,208.799 320.5,206.5C 321.833,202.5 321.833,198.5 320.5,194.5C 321.559,192.466 322.559,190.466 323.5,188.5C 324.298,185.769 325.965,183.603 328.5,182C 328.167,181.667 327.833,181.333 327.5,181C 330.232,180.602 332.065,179.102 333,176.5C 333.333,176.833 333.667,177.167 334,177.5C 334.419,176.328 335.085,175.328 336,174.5C 336.977,175.774 337.811,175.774 338.5,174.5C 340.998,173.373 343.664,172.706 346.5,172.5C 348.945,173.111 351.278,173.111 353.5,172.5C 355.001,173.752 356.668,174.752 358.5,175.5C 359.107,175.376 359.44,175.043 359.5,174.5 Z"/></g>
<g><path style="opacity:0.004" fill="#fe0000" d="M 359.5,174.5 C 358.833,173.167 358.833,173.167 359.5,174.5 Z"/></g>
<g><path style="opacity:0.004" fill="#fe0000" d="M 175.5,174.5 C 174.833,175.167 174.833,175.167 175.5,174.5 Z"/></g>
<g><path style="opacity:0.998" fill="#e12826" d="M 201.5,205.5 C 202.473,207.149 203.473,208.816 204.5,210.5C 203.957,210.56 203.624,210.893 203.5,211.5C 205.358,213.524 207.025,215.691 208.5,218C 208.043,218.414 207.709,218.914 207.5,219.5C 210.074,221.972 211.407,224.638 211.5,227.5C 212.237,229.305 213.237,230.971 214.5,232.5C 213.347,233.687 213.347,234.687 214.5,235.5C 215.242,237.426 216.242,239.259 217.5,241C 217.167,241.333 216.833,241.667 216.5,242C 218.689,242.677 219.022,243.844 217.5,245.5C 219.261,248.07 220.594,250.403 221.5,252.5C 220.347,253.687 220.347,254.687 221.5,255.5C 221.297,257.39 221.963,258.89 223.5,260C 223.167,260.333 222.833,260.667 222.5,261C 224.689,261.677 225.022,262.844 223.5,264.5C 224.167,264.833 224.833,265.167 225.5,265.5C 225.069,266.293 224.735,267.127 224.5,268C 225.783,270.005 226.783,272.172 227.5,274.5C 226.522,275.801 226.855,276.968 228.5,278C 228.089,279.144 227.756,280.311 227.5,281.5C 228.73,284.585 229.73,287.751 230.5,291C 229.521,292.779 229.854,294.445 231.5,296C 230.954,307.787 230.954,319.787 231.5,332C 230.637,336.26 229.637,340.093 228.5,343.5C 227.295,344.672 227.295,346.005 228.5,347.5C 226.615,348.197 226.282,349.197 227.5,350.5C 224.336,354.999 222.336,359.666 221.5,364.5C 220.167,364.833 220.167,365.167 221.5,365.5C 220.785,367.755 219.452,369.588 217.5,371C 217.833,371.333 218.167,371.667 218.5,372C 212.788,380.76 205.621,388.927 197,396.5C 196.667,396.167 196.333,395.833 196,395.5C 192.265,399.084 188.098,402.918 183.5,407C 178.844,408.421 174.844,410.587 171.5,413.5C 171.167,412.167 170.833,412.167 170.5,413.5C 169.078,414.925 167.411,415.925 165.5,416.5C 165.167,415.167 164.833,415.167 164.5,416.5C 162.219,417.608 160.052,418.942 158,420.5C 156.984,419.366 156.317,419.699 156,421.5C 155.667,421.167 155.333,420.833 155,420.5C 152.726,422.917 150.226,423.917 147.5,423.5C 144.553,425.516 141.553,426.516 138.5,426.5C 135.995,426.98 133.662,427.98 131.5,429.5C 130.197,428.282 129.197,428.615 128.5,430.5C 126.208,428.976 124.208,429.309 122.5,431.5C 121.038,430.529 119.705,430.862 118.5,432.5C 117.199,431.522 116.032,431.855 115,433.5C 113.323,432.392 111.823,432.392 110.5,433.5C 106.779,434.188 103.112,435.188 99.5,436.5C 98.0143,436.103 96.5143,435.77 95,435.5C 84.8013,436.849 74.6346,438.516 64.5,440.5C 44.8538,439.536 25.1871,439.203 5.5,439.5C 5.28099,438.325 5.61432,437.325 6.5,436.5C 8.92642,436.381 11.2598,436.047 13.5,435.5C 19.1884,433.325 24.855,431.991 30.5,431.5C 34.6569,429.793 38.6569,428.793 42.5,428.5C 46.2975,427.047 49.9642,426.047 53.5,425.5C 54.791,425.737 55.791,425.404 56.5,424.5C 62.826,423.138 68.826,421.138 74.5,418.5C 77.0857,417.99 79.419,416.99 81.5,415.5C 81.56,416.043 81.8933,416.376 82.5,416.5C 84.7419,414.461 87.2419,412.795 90,411.5C 90.414,411.957 90.914,412.291 91.5,412.5C 93.1933,410.973 95.0266,409.64 97,408.5C 97.414,408.957 97.914,409.291 98.5,409.5C 100.323,408.509 101.823,407.176 103,405.5C 103.977,406.774 104.811,406.774 105.5,405.5C 107.113,405.056 108.28,404.056 109,402.5C 110.016,403.634 110.683,403.301 111,401.5C 111.333,401.833 111.667,402.167 112,402.5C 114.015,400.083 116.015,398.416 118,397.5C 118.333,397.833 118.667,398.167 119,398.5C 119.918,396.368 121.251,395.701 123,396.5C 124.385,395.449 125.385,394.116 126,392.5C 127,392.5 128,392.5 129,392.5C 129.724,390.041 131.057,389.041 133,389.5C 136.328,385.87 140.328,382.203 145,378.5C 145.333,378.833 145.667,379.167 146,379.5C 146.333,378.5 146.667,377.5 147,376.5C 153.171,369.996 159.671,363.829 166.5,358C 166.167,357.667 165.833,357.333 165.5,357C 167.745,354.116 170.079,351.282 172.5,348.5C 175.472,344.127 177.972,339.794 180,335.5C 180.684,334.216 180.517,333.049 179.5,332C 180.494,330.671 181.494,329.338 182.5,328C 182.847,323.435 184.18,318.935 186.5,314.5C 187.705,313.328 187.705,311.995 186.5,310.5C 188.138,309.295 188.471,307.962 187.5,306.5C 190.327,302.329 190.994,297.496 189.5,292C 189.844,290.635 190.511,289.468 191.5,288.5C 190.978,287.393 190.645,286.226 190.5,285C 192.525,273.989 192.525,262.822 190.5,251.5C 190.57,250.228 190.903,249.062 191.5,248C 189.258,244.796 188.924,241.296 190.5,237.5C 190.29,232.289 188.957,227.122 186.5,222C 187.66,220.003 187.66,218.169 186.5,216.5C 184.629,206.491 182.295,196.824 179.5,187.5C 179.703,185.61 179.037,184.11 177.5,183C 177.833,182.667 178.167,182.333 178.5,182C 177.692,181.692 177.025,181.192 176.5,180.5C 177.705,179.005 177.705,177.672 176.5,176.5C 176.672,175.508 176.338,174.842 175.5,174.5C 174.412,172.417 173.412,170.251 172.5,168C 173.791,166.708 173.791,165.542 172.5,164.5C 171.108,161.993 170.108,159.327 169.5,156.5C 169.907,155.238 170.24,153.905 170.5,152.5C 172.836,156.448 175.503,159.948 178.5,163C 178.167,163.333 177.833,163.667 177.5,164C 179.959,164.724 180.959,166.057 180.5,168C 182.301,168.317 182.634,168.984 181.5,170C 183.632,170.918 184.299,172.251 183.5,174C 184.5,174.333 185.5,174.667 186.5,175C 186.167,175.333 185.833,175.667 185.5,176C 186.456,178.932 188.456,181.599 191.5,184C 191.167,184.333 190.833,184.667 190.5,185C 191.243,186.818 192.743,188.652 195,190.5C 195.617,191.449 195.451,192.282 194.5,193C 196.301,193.317 196.634,193.984 195.5,195C 197.679,195.442 198.345,196.442 197.5,198C 199.008,199.507 200.341,201.173 201.5,203C 200.226,203.977 200.226,204.811 201.5,205.5 Z"/></g>
<g><path style="opacity:0.004" fill="#fe0000" d="M 176.5,176.5 C 176.631,177.239 176.464,177.906 176,178.5C 175.308,177.563 175.475,176.897 176.5,176.5 Z"/></g>
<g><path style="opacity:0.004" fill="#fe0000" d="M 522.5,177.5 C 523.833,178.167 523.833,178.833 522.5,179.5C 522.5,178.833 522.5,178.167 522.5,177.5 Z"/></g>
<g><path style="opacity:0.004" fill="#fe0000" d="M 179.5,187.5 C 178.833,188.167 178.833,188.167 179.5,187.5 Z"/></g>
<g><path style="opacity:0.004" fill="#fe0000" d="M 323.5,188.5 C 322.833,187.167 322.833,187.167 323.5,188.5 Z"/></g>
<g><path style="opacity:0.004" fill="#fe0000" d="M 489.5,188.5 C 490.833,189.167 490.833,189.167 489.5,188.5 Z"/></g>
<g><path style="opacity:0.004" fill="#fe0000" d="M 375.5,191.5 C 376.833,192.167 376.833,192.167 375.5,191.5 Z"/></g>
<g><path style="opacity:0.004" fill="#fe0000" d="M 319.5,199.5 C 320.525,199.897 320.692,200.563 320,201.5C 319.536,200.906 319.369,200.239 319.5,199.5 Z"/></g>
<g><path style="opacity:0.004" fill="#feff00" d="M 516.5,200.5 C 517.833,201.167 517.833,201.167 516.5,200.5 Z"/></g>
<g><path style="opacity:0.004" fill="#fe0000" d="M 201.5,204.5 C 202.833,205.167 202.833,205.167 201.5,204.5 Z"/></g>
<g><path style="opacity:0.004" fill="#fe0000" d="M 497.5,206.5 C 496.833,205.167 496.833,205.167 497.5,206.5 Z"/></g>
<g><path style="opacity:0.004" fill="#fe0000" d="M 257.5,209.5 C 258.833,210.167 258.833,210.167 257.5,209.5 Z"/></g>
<g><path style="opacity:0.004" fill="#fe0000" d="M 375.5,209.5 C 376.833,210.167 376.833,210.167 375.5,209.5 Z"/></g>
<g><path style="opacity:0.004" fill="#fe0000" d="M 204.5,210.5 C 205.833,211.167 205.833,211.167 204.5,210.5 Z"/></g>
<g><path style="opacity:0.004" fill="#fe0000" d="M 434.5,214.5 C 433.833,213.167 433.833,213.167 434.5,214.5 Z"/></g>
<g><path style="opacity:0.004" fill="#fe0000" d="M 186.5,216.5 C 186.631,217.239 186.464,217.906 186,218.5C 185.308,217.563 185.475,216.897 186.5,216.5 Z"/></g>
<g><path style="opacity:0.004" fill="#ff7ef8" d="M 512.5,216.5 C 513.525,216.897 513.692,217.563 513,218.5C 512.536,217.906 512.369,217.239 512.5,216.5 Z"/></g>
<g><path style="opacity:0.004" fill="#feff00" d="M 491.5,219.5 C 490.833,218.167 490.833,218.167 491.5,219.5 Z"/></g>
<g><path style="opacity:0.004" fill="#fe0000" d="M 330.5,222.5 C 330.833,222.5 331.167,222.5 331.5,222.5C 331.315,223.17 330.981,223.17 330.5,222.5 Z"/></g>
<g><path style="opacity:0.004" fill="#fe0000" d="M 211.5,226.5 C 212.833,227.167 212.833,227.167 211.5,226.5 Z"/></g>
<g><path style="opacity:0.004" fill="#fe0000" d="M 487.5,228.5 C 486.833,227.167 486.833,227.167 487.5,228.5 Z"/></g>
<g><path style="opacity:0.004" fill="#fe0000" d="M 395.5,234.5 C 394.833,233.167 394.833,233.167 395.5,234.5 Z"/></g>
<g><path style="opacity:0.004" fill="#fe0000" d="M 214.5,234.5 C 215.833,235.167 215.833,235.167 214.5,234.5 Z"/></g>
<g><path style="opacity:0.004" fill="#fe0000" d="M 188.5,235.5 C 189.598,236.601 189.765,237.934 189,239.5C 188.51,238.207 188.343,236.873 188.5,235.5 Z"/></g>
<g><path style="opacity:0.004" fill="#ffc1f7" d="M 484.5,234.5 C 484.5,235.167 484.5,235.833 484.5,236.5C 483.167,235.833 483.167,235.167 484.5,234.5 Z"/></g>
<g><path style="opacity:0.004" fill="#ff7ef8" d="M 509.5,236.5 C 510.525,236.897 510.692,237.563 510,238.5C 509.536,237.906 509.369,237.239 509.5,236.5 Z"/></g>
<g><path style="opacity:0.004" fill="#fe0000" d="M 324.5,239.5 C 325.833,240.167 325.833,240.167 324.5,239.5 Z"/></g>
<g><path style="opacity:0.004" fill="#fe0000" d="M 372.5,239.5 C 373.833,240.167 373.833,240.167 372.5,239.5 Z"/></g>
<g><path style="opacity:0.004" fill="#fe0000" d="M 328.5,241.5 C 328.897,240.475 329.563,240.308 330.5,241C 329.906,241.464 329.239,241.631 328.5,241.5 Z"/></g>
<g><path style="opacity:0.004" fill="#fe0000" d="M 367.5,241.5 C 367.897,240.475 368.563,240.308 369.5,241C 368.906,241.464 368.239,241.631 367.5,241.5 Z"/></g>
<g><path style="opacity:0.004" fill="#feff00" d="M 481.5,244.5 C 480.833,243.167 480.833,243.167 481.5,244.5 Z"/></g>
<g><path style="opacity:0.004" fill="#fe0000" d="M 441.5,248.5 C 442.833,249.167 442.833,249.167 441.5,248.5 Z"/></g>
<g><path style="opacity:0.004" fill="#fe0000" d="M 221.5,254.5 C 222.833,255.167 222.833,255.167 221.5,254.5 Z"/></g>
<g><path style="opacity:0.004" fill="#fe0000" d="M 477.5,256.5 C 476.833,255.167 476.833,255.167 477.5,256.5 Z"/></g>
<g><path style="opacity:0.004" fill="#fe0000" d="M 474.5,267.5 C 473.833,266.167 473.833,266.167 474.5,267.5 Z"/></g>
<g><path style="opacity:0.004" fill="#fe0000" d="M 290.5,276.5 C 290.833,276.5 291.167,276.5 291.5,276.5C 291.315,277.17 290.981,277.17 290.5,276.5 Z"/></g>
<g><path style="opacity:0.004" fill="#fe0000" d="M 228.5,280.5 C 229.525,280.897 229.692,281.563 229,282.5C 228.536,281.906 228.369,281.239 228.5,280.5 Z"/></g>
<g><path style="opacity:0.004" fill="#fe0000" d="M 469.5,281.5 C 470.833,282.167 470.833,282.167 469.5,281.5 Z"/></g>
<g><path style="opacity:0.004" fill="#fe0000" d="M 304.5,283.5 C 303.833,284.167 303.833,284.167 304.5,283.5 Z"/></g>
<g><path style="opacity:0.004" fill="#fe0000" d="M 311.5,286.5 C 310.833,287.167 310.833,287.167 311.5,286.5 Z"/></g>
<g><path style="opacity:0.004" fill="#fe0000" d="M 386.5,286.5 C 387.833,287.167 387.833,287.167 386.5,286.5 Z"/></g>
<g><path style="opacity:0.004" fill="#fe0000" d="M 318.5,289.5 C 319.167,289.5 319.833,289.5 320.5,289.5C 319.833,290.833 319.167,290.833 318.5,289.5 Z"/></g>
<g><path style="opacity:0.006" fill="#fe0000" d="M 377.5,289.5 C 378.167,289.5 378.833,289.5 379.5,289.5C 378.833,290.833 378.167,290.833 377.5,289.5 Z"/></g>
<g><path style="opacity:0.004" fill="#fe0000" d="M 334.5,293.5 C 335.833,294.167 335.833,294.167 334.5,293.5 Z"/></g>
<g><path style="opacity:0.004" fill="#fe0000" d="M 362.5,293.5 C 363.833,294.167 363.833,294.167 362.5,293.5 Z"/></g>
<g><path style="opacity:0.004" fill="#fe0000" d="M 128.5,297.5 C 127.833,296.167 127.833,296.167 128.5,297.5 Z"/></g>
<g><path style="opacity:0.004" fill="#fe0000" d="M 188.5,296.5 C 189.573,297.251 189.74,298.251 189,299.5C 188.517,298.552 188.351,297.552 188.5,296.5 Z"/></g>
<g><path style="opacity:0.004" fill="#fe0000" d="M 556.5,297.5 C 555.833,296.167 555.833,296.167 556.5,297.5 Z"/></g>
<g><path style="opacity:0.004" fill="#fe0000" d="M 567.5,296.5 C 568.833,297.167 568.833,297.167 567.5,296.5 Z"/></g>
<g><path style="opacity:0.004" fill="#fe0000" d="M 553.5,298.5 C 552.833,297.167 552.833,297.167 553.5,298.5 Z"/></g>
<g><path style="opacity:0.004" fill="#feff00" d="M 570.5,297.5 C 571.833,298.167 571.833,298.167 570.5,297.5 Z"/></g>
<g><path style="opacity:0.999" fill="#e12826" d="M 164.5,316.5 C 164.462,319.181 165.129,321.681 166.5,324C 165.129,326.319 164.462,328.819 164.5,331.5C 163.226,332.189 163.226,333.023 164.5,334C 163.833,335.333 162.833,336.333 161.5,337C 161.833,337.333 162.167,337.667 162.5,338C 159.542,340.627 156.875,343.46 154.5,346.5C 154.167,345.167 153.833,345.167 153.5,346.5C 152.474,347.853 151.141,348.853 149.5,349.5C 149.167,348.167 148.833,348.167 148.5,349.5C 147.508,349.328 146.842,349.662 146.5,350.5C 144.584,350.092 142.751,350.759 141,352.5C 138.101,351.762 135.435,351.762 133,352.5C 130.502,351.722 128.002,350.722 125.5,349.5C 125.167,348.167 124.833,348.167 124.5,349.5C 122.859,348.853 121.526,347.853 120.5,346.5C 120.167,345.167 119.833,345.167 119.5,346.5C 117.691,343.861 115.358,341.694 112.5,340C 112.833,339.667 113.167,339.333 113.5,339C 112.932,337.348 111.599,335.682 109.5,334C 110.791,332.708 110.791,331.542 109.5,330.5C 109.5,326.167 109.5,321.833 109.5,317.5C 110.774,316.811 110.774,315.977 109.5,315C 112.552,312.088 114.385,308.921 115,305.5C 117.723,302.846 120.556,300.679 123.5,299C 124.449,298.383 125.282,298.549 126,299.5C 126.995,298.934 127.828,298.267 128.5,297.5C 131.758,295.782 135.425,295.115 139.5,295.5C 141.459,295.875 143.293,296.541 145,297.5C 145.333,297.167 145.667,296.833 146,296.5C 146.576,299.124 147.91,299.791 150,298.5C 150.317,300.301 150.984,300.634 152,299.5C 155.859,302.023 159.359,305.523 162.5,310C 161.939,311.566 162.606,312.899 164.5,314C 163.226,314.977 163.226,315.811 164.5,316.5 Z"/></g>
<g><path style="opacity:0.996" fill="#f6b800" d="M 567.5,297.5 C 568.209,298.404 569.209,298.737 570.5,298.5C 571.313,299.653 572.313,299.653 573.5,298.5C 576.107,300.892 578.607,303.225 581,305.5C 581.333,305.167 581.667,304.833 582,304.5C 583.068,306.665 584.568,308.998 586.5,311.5C 585.167,311.833 585.167,312.167 586.5,312.5C 587.614,313.885 588.614,315.385 589.5,317C 589.413,322.463 589.413,327.963 589.5,333.5C 586.878,339.538 582.211,344.871 575.5,349.5C 573.911,351.306 571.911,352.639 569.5,353.5C 564.167,353.5 558.833,353.5 553.5,353.5C 548.631,351.393 543.965,348.227 539.5,344C 539.833,343.667 540.167,343.333 540.5,343C 538.321,342.558 537.655,341.558 538.5,340C 535.507,337.541 534.174,334.708 534.5,331.5C 534.138,327.347 534.138,323.347 534.5,319.5C 534.174,316.292 535.507,313.459 538.5,311C 538.167,310.667 537.833,310.333 537.5,310C 539.24,308.483 540.906,306.983 542.5,305.5C 543.885,304.426 545.051,303.093 546,301.5C 546.333,301.833 546.667,302.167 547,302.5C 548.097,300.947 549.43,299.614 551,298.5C 551.977,299.774 552.811,299.774 553.5,298.5C 554.791,298.737 555.791,298.404 556.5,297.5C 560.2,296.242 563.866,296.242 567.5,297.5 Z"/></g>
<g><path style="opacity:0.004" fill="#ffc1f7" d="M 509.5,298.5 C 510.525,298.897 510.692,299.563 510,300.5C 509.536,299.906 509.369,299.239 509.5,298.5 Z"/></g>
<g><path style="opacity:0.004" fill="#fe0000" d="M 231.5,302.5 C 232.622,304.288 232.789,306.288 232,308.5C 231.505,306.527 231.338,304.527 231.5,302.5 Z"/></g>
<g><path style="opacity:0.004" fill="#ffd1f8" d="M 466.5,302.5 C 467.622,304.288 467.789,306.288 467,308.5C 466.505,306.527 466.338,304.527 466.5,302.5 Z"/></g>
<g><path style="opacity:0.004" fill="#fe0000" d="M 542.5,305.5 C 541.833,304.167 541.833,304.167 542.5,305.5 Z"/></g>
<g><path style="opacity:0.004" fill="#fe0000" d="M 231.5,309.5 C 232.833,310.167 232.833,310.167 231.5,309.5 Z"/></g>
<g><path style="opacity:0.004" fill="#feff00" d="M 586.5,311.5 C 587.833,312.167 587.833,312.167 586.5,311.5 Z"/></g>
<g><path style="opacity:0.004" fill="#fe0000" d="M 186.5,314.5 C 185.475,314.103 185.308,313.437 186,312.5C 186.464,313.094 186.631,313.761 186.5,314.5 Z"/></g>
<g><path style="opacity:0.004" fill="#fe0000" d="M 164.5,315.5 C 165.833,316.167 165.833,316.167 164.5,315.5 Z"/></g>
<g><path style="opacity:0.004" fill="#fe0000" d="M 109.5,317.5 C 108.833,316.167 108.833,316.167 109.5,317.5 Z"/></g>
<g><path style="opacity:0.004" fill="#fe0000" d="M 231.5,318.5 C 232.634,320.966 232.801,323.633 232,326.5C 231.503,323.854 231.336,321.187 231.5,318.5 Z"/></g>
<g><path style="opacity:0.004" fill="#ffc1f7" d="M 534.5,319.5 C 533.475,319.103 533.308,318.437 534,317.5C 534.464,318.094 534.631,318.761 534.5,319.5 Z"/></g>
<g><path style="opacity:0.004" fill="#fe0000" d="M 107.5,319.5 C 108.525,319.897 108.692,320.563 108,321.5C 107.536,320.906 107.369,320.239 107.5,319.5 Z"/></g>
<g><path style="opacity:0.004" fill="#ffc1f7" d="M 589.5,319.5 C 590.525,319.897 590.692,320.563 590,321.5C 589.536,320.906 589.369,320.239 589.5,319.5 Z"/></g>
<g><path style="opacity:0.004" fill="#ff87f7" d="M 466.5,323.5 C 467.613,324.946 467.78,326.613 467,328.5C 466.506,326.866 466.34,325.199 466.5,323.5 Z"/></g>
<g><path style="opacity:0.004" fill="#fe0000" d="M 107.5,327.5 C 108.833,328.167 108.833,328.167 107.5,327.5 Z"/></g>
<g><path style="opacity:0.004" fill="#fe0000" d="M 516.5,327.5 C 517.833,328.167 517.833,328.167 516.5,327.5 Z"/></g>
<g><path style="opacity:0.004" fill="#fe0000" d="M 589.5,329.5 C 590.525,329.897 590.692,330.563 590,331.5C 589.536,330.906 589.369,330.239 589.5,329.5 Z"/></g>
<g><path style="opacity:0.004" fill="#fe0000" d="M 109.5,330.5 C 109.631,331.239 109.464,331.906 109,332.5C 108.308,331.563 108.475,330.897 109.5,330.5 Z"/></g>
<g><path style="opacity:0.004" fill="#fe0000" d="M 164.5,331.5 C 165.833,332.167 165.833,332.167 164.5,331.5 Z"/></g>
<g><path style="opacity:0.004" fill="#fe0000" d="M 534.5,331.5 C 533.833,332.167 533.833,332.167 534.5,331.5 Z"/></g>
<g><path style="opacity:0.004" fill="#feff00" d="M 519.5,335.5 C 520.833,336.167 520.833,336.167 519.5,335.5 Z"/></g>
<g><path style="opacity:0.004" fill="#feff00" d="M 522.5,342.5 C 523.833,343.167 523.833,343.167 522.5,342.5 Z"/></g>
<g><path style="opacity:0.004" fill="#fe0000" d="M 228.5,343.5 C 229.525,343.897 229.692,344.563 229,345.5C 228.536,344.906 228.369,344.239 228.5,343.5 Z"/></g>
<g><path style="opacity:0.004" fill="#fe0000" d="M 119.5,346.5 C 119.833,346.5 120.167,346.5 120.5,346.5C 120.315,347.17 119.981,347.17 119.5,346.5 Z"/></g>
<g><path style="opacity:0.004" fill="#fe0000" d="M 153.5,346.5 C 153.833,346.5 154.167,346.5 154.5,346.5C 154.315,347.17 153.981,347.17 153.5,346.5 Z"/></g>
<g><path style="opacity:0.004" fill="#fe0000" d="M 172.5,348.5 C 171.833,347.167 171.833,347.167 172.5,348.5 Z"/></g>
<g><path style="opacity:0.004" fill="#fe0000" d="M 124.5,349.5 C 124.833,349.5 125.167,349.5 125.5,349.5C 125.315,350.17 124.981,350.17 124.5,349.5 Z"/></g>
<g><path style="opacity:0.004" fill="#fe0000" d="M 148.5,349.5 C 148.833,349.5 149.167,349.5 149.5,349.5C 149.315,350.17 148.981,350.17 148.5,349.5 Z"/></g>
<g><path style="opacity:0.004" fill="#feff00" d="M 575.5,349.5 C 576.833,350.167 576.833,350.167 575.5,349.5 Z"/></g>
<g><path style="opacity:0.004" fill="#fe0000" d="M 146.5,350.5 C 147.833,351.167 147.833,351.167 146.5,350.5 Z"/></g>
<g><path style="opacity:0.004" fill="#feff00" d="M 555.5,353.5 C 556.833,354.167 556.833,354.167 555.5,353.5 Z"/></g>
<g><path style="opacity:0.004" fill="#ff7ef8" d="M 565.5,354.5 C 565.897,353.475 566.563,353.308 567.5,354C 566.906,354.464 566.239,354.631 565.5,354.5 Z"/></g>
<g><path style="opacity:0.004" fill="#feff00" d="M 474.5,358.5 C 473.833,359.167 473.833,359.167 474.5,358.5 Z"/></g>
<g><path style="opacity:0.004" fill="#fe0000" d="M 221.5,364.5 C 222.833,365.167 222.833,365.167 221.5,364.5 Z"/></g>
<g><path style="opacity:0.004" fill="#fe0000" d="M 502.5,397.5 C 501.833,398.167 501.833,398.167 502.5,397.5 Z"/></g>
<g><path style="opacity:0.004" fill="#fe0000" d="M 578.5,397.5 C 579.833,398.167 579.833,398.167 578.5,397.5 Z"/></g>
<g><path style="opacity:0.004" fill="#fe0000" d="M 105.5,405.5 C 104.833,404.167 104.833,404.167 105.5,405.5 Z"/></g>
<g><path style="opacity:0.004" fill="#feff00" d="M 513.5,406.5 C 513.833,406.5 514.167,406.5 514.5,406.5C 514.315,407.17 513.981,407.17 513.5,406.5 Z"/></g>
<g><path style="opacity:0.004" fill="#fe0000" d="M 170.5,413.5 C 170.833,413.5 171.167,413.5 171.5,413.5C 171.315,414.17 170.981,414.17 170.5,413.5 Z"/></g>
<g><path style="opacity:0.004" fill="#fe0000" d="M 81.5,414.5 C 82.8333,415.167 82.8333,415.167 81.5,414.5 Z"/></g>
<g><path style="opacity:0.004" fill="#fe0000" d="M 164.5,416.5 C 164.833,416.5 165.167,416.5 165.5,416.5C 165.315,417.17 164.981,417.17 164.5,416.5 Z"/></g>
<g><path style="opacity:0.004" fill="#fe0000" d="M 530.5,416.5 C 530.833,416.5 531.167,416.5 531.5,416.5C 531.315,417.17 530.981,417.17 530.5,416.5 Z"/></g>
<g><path style="opacity:0.004" fill="#fe0000" d="M 74.5,418.5 C 73.8333,417.167 73.8333,417.167 74.5,418.5 Z"/></g>
<g><path style="opacity:0.004" fill="#fe0000" d="M 620.5,417.5 C 621.833,418.167 621.833,418.167 620.5,417.5 Z"/></g>
<g><path style="opacity:0.004" fill="#fe0000" d="M 64.5,420.5 C 65.8333,421.167 65.8333,421.167 64.5,420.5 Z"/></g>
<g><path style="opacity:0.004" fill="#fe0000" d="M 56.5,424.5 C 55.8333,423.167 55.8333,423.167 56.5,424.5 Z"/></g>
<g><path style="opacity:0.004" fill="#fe0000" d="M 147.5,423.5 C 148.833,424.167 148.833,424.167 147.5,423.5 Z"/></g>
<g><path style="opacity:0.004" fill="#fe0000" d="M 547.5,423.5 C 546.833,424.167 546.833,424.167 547.5,423.5 Z"/></g>
<g><path style="opacity:0.004" fill="#fe0000" d="M 53.5,425.5 C 52.8333,424.167 52.8333,424.167 53.5,425.5 Z"/></g>
<g><path style="opacity:0.004" fill="#fe0000" d="M 641.5,424.5 C 642.833,425.167 642.833,425.167 641.5,424.5 Z"/></g>
<g><path style="opacity:0.004" fill="#fe0000" d="M 138.5,426.5 C 139.833,427.167 139.833,427.167 138.5,426.5 Z"/></g>
<g><path style="opacity:0.004" fill="#fe0000" d="M 554.5,426.5 C 555.167,426.5 555.833,426.5 556.5,426.5C 555.833,427.833 555.167,427.833 554.5,426.5 Z"/></g>
<g><path style="opacity:0.004" fill="#fe0000" d="M 42.5,428.5 C 41.8333,427.167 41.8333,427.167 42.5,428.5 Z"/></g>
<g><path style="opacity:0.004" fill="#fe0000" d="M 557.5,427.5 C 558.833,428.167 558.833,428.167 557.5,427.5 Z"/></g>
<g><path style="opacity:0.004" fill="#fe0000" d="M 651.5,428.5 C 651.897,427.475 652.563,427.308 653.5,428C 652.906,428.464 652.239,428.631 651.5,428.5 Z"/></g>
<g><path style="opacity:0.004" fill="#fe0000" d="M 30.5,431.5 C 29.8333,430.167 29.8333,430.167 30.5,431.5 Z"/></g>
<g><path style="opacity:0.004" fill="#fe0000" d="M 124.5,430.5 C 125.833,431.167 125.833,431.167 124.5,430.5 Z"/></g>
<g><path style="opacity:0.004" fill="#feff00" d="M 569.5,430.5 C 568.833,431.167 568.833,431.167 569.5,430.5 Z"/></g>
<g><path style="opacity:0.004" fill="#feff00" d="M 663.5,430.5 C 664.833,431.167 664.833,431.167 663.5,430.5 Z"/></g>
<g><path style="opacity:0.004" fill="#fe0000" d="M 15.5,433.5 C 16.8333,434.167 16.8333,434.167 15.5,433.5 Z"/></g>
<g><path style="opacity:0.004" fill="#fe0000" d="M 110.5,433.5 C 111.239,433.369 111.906,433.536 112.5,434C 111.563,434.692 110.897,434.525 110.5,433.5 Z"/></g>
<g><path style="opacity:0.004" fill="#ffc1f7" d="M 582.5,433.5 C 582.103,434.525 581.437,434.692 580.5,434C 581.094,433.536 581.761,433.369 582.5,433.5 Z"/></g>
<g><path style="opacity:0.004" fill="#fe0000" d="M 13.5,435.5 C 12.7611,435.631 12.0944,435.464 11.5,435C 12.4368,434.308 13.1034,434.475 13.5,435.5 Z"/></g>
<g><path style="opacity:0.004" fill="#fe0000" d="M 680.5,434.5 C 681.833,435.167 681.833,435.167 680.5,434.5 Z"/></g>
<g><path style="opacity:0.006" fill="#fe0000" d="M 93.5,437.5 C 93.8966,436.475 94.5632,436.308 95.5,437C 94.9056,437.464 94.2389,437.631 93.5,437.5 Z"/></g>
<g><path style="opacity:0.004" fill="#ffc1f7" d="M 595.5,437.5 C 595.897,436.475 596.563,436.308 597.5,437C 596.906,437.464 596.239,437.631 595.5,437.5 Z"/></g>
<g><path style="opacity:0.004" fill="#fe0000" d="M 87.5,438.5 C 87.8966,437.475 88.5632,437.308 89.5,438C 88.9056,438.464 88.2389,438.631 87.5,438.5 Z"/></g>
<g><path style="opacity:0.004" fill="#fe0000" d="M 602.5,437.5 C 602.103,438.525 601.437,438.692 600.5,438C 601.094,437.536 601.761,437.369 602.5,437.5 Z"/></g>
<g><path style="opacity:0.004" fill="#fe0000" d="M 13.5,441.5 C 18.3158,440.35 23.3158,440.184 28.5,441C 23.5111,441.499 18.5111,441.666 13.5,441.5 Z"/></g>
<g><path style="opacity:0.004" fill="#fe0000" d="M 32.5,440.5 C 33.8333,441.167 33.8333,441.167 32.5,440.5 Z"/></g>
<g><path style="opacity:0.004" fill="#fe0000" d="M 39.5,441.5 C 44.9846,440.348 50.6513,440.182 56.5,441C 50.8431,441.499 45.1764,441.666 39.5,441.5 Z"/></g>
<g><path style="opacity:0.004" fill="#ff4efc" d="M 624.5,441.5 C 626.288,440.378 628.288,440.211 630.5,441C 628.527,441.495 626.527,441.662 624.5,441.5 Z"/></g>
<g><path style="opacity:0.012" fill="#74123f" d="M 48.5,453.5 C 40.9809,453.825 33.6476,453.492 26.5,452.5C 29.8157,452.156 33.149,451.823 36.5,451.5C 40.6776,451.956 44.6776,452.623 48.5,453.5 Z"/></g>
<g><path style="opacity:0.004" fill="#000000" d="M 77.5,454.5 C 77.8966,453.475 78.5632,453.308 79.5,454C 78.9056,454.464 78.2389,454.631 77.5,454.5 Z"/></g>
<g><path style="opacity:0.004" fill="#000000" d="M 614.5,454.5 C 614.897,453.475 615.563,453.308 616.5,454C 615.906,454.464 615.239,454.631 614.5,454.5 Z"/></g>
<g><path style="opacity:0.999" fill="#8a07c8" d="M 26.5,452.5 C 33.6476,453.492 40.9809,453.825 48.5,453.5C 52.0274,453.496 55.5274,453.163 59,452.5C 61.3788,452.482 63.5455,453.149 65.5,454.5C 66.7722,453.954 68.1055,453.621 69.5,453.5C 76.7275,455.773 84.0608,456.439 91.5,455.5C 93.0293,455.529 94.196,456.196 95,457.5C 97.3333,457.5 99.6667,457.5 102,457.5C 104.209,459.706 106.709,460.04 109.5,458.5C 110.705,460.138 112.038,460.471 113.5,459.5C 115.45,460.372 117.45,461.039 119.5,461.5C 124.715,462.114 129.882,463.78 135,466.5C 138.256,465.47 141.09,466.303 143.5,469C 146.661,468.542 149.661,469.375 152.5,471.5C 155.56,471.844 158.56,473.177 161.5,475.5C 162.189,476.774 163.023,476.774 164,475.5C 165.667,476.833 167.333,478.167 169,479.5C 169.333,479.167 169.667,478.833 170,478.5C 173.679,480.417 177.346,483.083 181,486.5C 181.333,486.167 181.667,485.833 182,485.5C 185.323,487.824 188.323,490.491 191,493.5C 191.333,493.167 191.667,492.833 192,492.5C 193.188,493.563 193.688,494.897 193.5,496.5C 197.597,496.469 200.097,498.469 201,502.5C 203.091,505.218 205.758,507.218 209,508.5C 209.862,510.087 210.529,511.754 211,513.5C 211.914,512.346 212.747,512.513 213.5,514C 213.167,514.333 212.833,514.667 212.5,515C 214.679,515.442 215.345,516.442 214.5,518C 216.887,518.976 218.054,520.809 218,523.5C 218.333,523.167 218.667,522.833 219,522.5C 219.655,524.628 220.489,526.628 221.5,528.5C 220.167,528.833 220.167,529.167 221.5,529.5C 222.117,531.229 223.117,532.729 224.5,534C 223.549,534.718 223.383,535.551 224,536.5C 224.654,535.304 225.154,535.304 225.5,536.5C 224.347,537.687 224.347,538.687 225.5,539.5C 225.641,541.821 226.641,544.154 228.5,546.5C 227.295,547.995 227.295,549.328 228.5,550.5C 228.855,553.067 229.521,555.567 230.5,558C 230.355,558.772 230.022,559.439 229.5,560C 230.804,560.804 231.471,561.971 231.5,563.5C 230.179,573.996 230.179,584.496 231.5,595C 231.245,596.326 230.578,597.326 229.5,598C 230.059,598.725 230.392,599.558 230.5,600.5C 229.808,603.936 228.808,607.27 227.5,610.5C 229.03,612.798 228.696,614.631 226.5,616C 226.957,616.414 227.291,616.914 227.5,617.5C 226.199,620.427 225.199,623.427 224.5,626.5C 224.446,630.309 223.113,633.976 220.5,637.5C 220.624,638.107 220.957,638.44 221.5,638.5C 221.16,640.679 220.16,642.512 218.5,644C 218.875,648.673 217.208,653.173 213.5,657.5C 213.624,658.107 213.957,658.44 214.5,658.5C 211.299,662.911 209.299,667.578 208.5,672.5C 208.005,675.163 206.672,677.829 204.5,680.5C 203.226,681.189 203.226,682.023 204.5,683C 202.824,684.177 201.491,685.677 200.5,687.5C 200.624,688.107 200.957,688.44 201.5,688.5C 200.752,690.332 199.752,691.999 198.5,693.5C 197.167,693.833 197.167,694.167 198.5,694.5C 197.167,696.5 195.833,698.5 194.5,700.5C 193.226,701.189 193.226,702.023 194.5,703C 193.29,704.039 192.29,705.206 191.5,706.5C 190.582,708.82 189.248,710.987 187.5,713C 187.833,713.333 188.167,713.667 188.5,714C 186.833,715.667 185.167,717.333 183.5,719C 183.833,719.333 184.167,719.667 184.5,720C 183.635,721.359 182.635,722.526 181.5,723.5C 180.167,723.833 180.167,724.167 181.5,724.5C 180.977,726.708 179.644,728.208 177.5,729C 177.833,729.333 178.167,729.667 178.5,730C 175.964,734.202 173.297,737.702 170.5,740.5C 169.614,739.675 169.281,738.675 169.5,737.5C 170.31,730.528 172.31,723.861 175.5,717.5C 176.338,717.158 176.672,716.492 176.5,715.5C 176.783,711.932 177.783,708.265 179.5,704.5C 181.962,694.8 184.295,685.133 186.5,675.5C 186.957,667.891 188.29,660.558 190.5,653.5C 188.97,649.437 189.304,645.604 191.5,642C 191.445,630.522 191.445,619.022 191.5,607.5C 190.456,606.377 189.79,605.044 189.5,603.5C 190.706,596.876 189.706,590.543 186.5,584.5C 186.987,583.554 187.32,582.554 187.5,581.5C 186.079,577.573 184.413,573.74 182.5,570C 183.517,568.951 183.684,567.784 183,566.5C 181.542,563.917 180.042,561.417 178.5,559C 178.957,558.586 179.291,558.086 179.5,557.5C 177.118,553.566 174.451,549.399 171.5,545C 171.833,544.667 172.167,544.333 172.5,544C 170.5,542 168.5,540 166.5,538C 166.833,537.667 167.167,537.333 167.5,537C 164.503,532.668 160.503,528.668 155.5,525C 155.833,524.667 156.167,524.333 156.5,524C 155.167,523.333 153.833,522.667 152.5,522C 153.654,521.086 153.487,520.253 152,519.5C 151.667,519.833 151.333,520.167 151,520.5C 148.294,518.129 145.961,515.463 144,512.5C 142.057,512.959 140.724,511.959 140,509.5C 139.667,509.833 139.333,510.167 139,510.5C 138.077,509.241 137.243,507.908 136.5,506.5C 135.914,506.709 135.414,507.043 135,507.5C 131.071,503.579 126.571,500.413 121.5,498C 120.874,497.25 120.374,496.416 120,495.5C 119,495.5 118,495.5 117,495.5C 115.052,493.535 112.886,491.869 110.5,490.5C 109.811,489.226 108.977,489.226 108,490.5C 107.167,489.5 106.333,488.5 105.5,487.5C 104.158,488.902 103.324,488.569 103,486.5C 102.667,486.833 102.333,487.167 102,487.5C 100.226,486.035 98.3925,484.702 96.5,483.5C 95.8106,482.226 94.9772,482.226 94,483.5C 93.6827,481.699 93.016,481.366 92,482.5C 90.684,479.953 88.8507,479.287 86.5,480.5C 84.5,479.167 82.5,477.833 80.5,476.5C 78.2229,476.985 76.0563,476.319 74,474.5C 73.6667,474.833 73.3333,475.167 73,475.5C 72.7216,474.584 72.2216,473.918 71.5,473.5C 68.4466,473.516 65.4466,472.516 62.5,470.5C 50.6289,467.871 38.2956,464.538 25.5,460.5C 18.9632,458.65 12.2966,457.317 5.5,456.5C 5.33003,455.178 5.66337,454.011 6.5,453C 13.1714,453.736 19.8381,453.569 26.5,452.5 Z"/></g>
<g><path style="opacity:0.008" fill="#7c137b" d="M 84.5,455.5 C 85.2506,454.427 86.2506,454.26 87.5,455C 86.552,455.483 85.552,455.649 84.5,455.5 Z"/></g>
<g><path style="opacity:0.008" fill="#153f0e" d="M 607.5,455.5 C 608.251,454.427 609.251,454.26 610.5,455C 609.552,455.483 608.552,455.649 607.5,455.5 Z"/></g>
<g><path style="opacity:1" fill="#0c8137" d="M 685.5,457.5 C 680.771,459.44 676.104,460.44 671.5,460.5C 667.136,462.345 662.803,463.345 658.5,463.5C 655.092,464.949 651.592,466.282 648,467.5C 646.951,466.483 645.784,466.316 644.5,467C 641.907,469.316 639.074,470.149 636,469.5C 633.017,471.522 630.184,472.855 627.5,473.5C 626.833,472.167 626.167,472.167 625.5,473.5C 620.683,476.525 615.349,478.858 609.5,480.5C 609.167,479.167 608.833,479.167 608.5,480.5C 606.362,480.703 604.695,481.703 603.5,483.5C 602.158,482.098 601.324,482.431 601,484.5C 599.434,483.939 598.101,484.606 597,486.5C 595.984,485.366 595.317,485.699 595,487.5C 594.586,487.043 594.086,486.709 593.5,486.5C 589.899,488.532 586.233,490.866 582.5,493.5C 582.167,492.167 581.833,492.167 581.5,493.5C 578.324,496.004 575.157,498.338 572,500.5C 571,500.5 570,500.5 569,500.5C 568.558,502.679 567.558,503.345 566,502.5C 565.303,504.923 563.803,506.589 561.5,507.5C 561.167,506.167 560.833,506.167 560.5,507.5C 554.146,513.046 547.313,519.712 540,527.5C 539.667,527.167 539.333,526.833 539,526.5C 538.535,527.931 537.701,529.097 536.5,530C 536.833,530.333 537.167,530.667 537.5,531C 534.772,532.617 532.438,534.617 530.5,537C 530.833,537.333 531.167,537.667 531.5,538C 529.991,539.821 528.325,541.654 526.5,543.5C 525.235,545.791 523.902,548.125 522.5,550.5C 521.167,550.833 521.167,551.167 522.5,551.5C 521.585,553.754 520.252,555.754 518.5,557.5C 518.624,558.107 518.957,558.44 519.5,558.5C 518.242,560.687 517.242,563.02 516.5,565.5C 515.466,569.269 514.133,573.269 512.5,577.5C 512.036,581.993 511.036,586.659 509.5,591.5C 508.497,593.487 508.497,595.654 509.5,598C 508.971,601.85 507.971,605.85 506.5,610C 507.833,619.333 507.833,628.667 506.5,638C 508.816,644.37 509.483,650.87 508.5,657.5C 508.549,662.666 509.882,667.666 512.5,672.5C 511.515,674.098 511.349,675.765 512,677.5C 512.654,676.304 513.154,676.304 513.5,677.5C 512.555,680.292 512.555,682.792 513.5,685C 515.882,687.547 516.549,690.38 515.5,693.5C 517.57,700.798 519.904,708.131 522.5,715.5C 521.167,716.167 521.167,716.833 522.5,717.5C 524.903,721.373 526.236,725.373 526.5,729.5C 528.062,732.715 529.062,735.882 529.5,739C 529,739.5 528.5,740 528,740.5C 526.378,737.506 524.211,734.673 521.5,732C 521.833,731.667 522.167,731.333 522.5,731C 521.167,730 519.833,729 518.5,728C 518.833,727.667 519.167,727.333 519.5,727C 517.314,725.488 515.647,723.488 514.5,721C 514.833,720.667 515.167,720.333 515.5,720C 514.167,718.667 512.833,717.333 511.5,716C 512.552,714.284 511.886,713.284 509.5,713C 509.833,712.667 510.167,712.333 510.5,712C 509.16,709.391 507.327,706.891 505,704.5C 505.397,701.802 504.23,699.635 501.5,698C 502.634,696.984 502.301,696.317 500.5,696C 500.833,695.667 501.167,695.333 501.5,695C 498.884,693.291 497.884,691.124 498.5,688.5C 495.919,686.401 494.586,684.068 494.5,681.5C 492.328,678.829 490.995,676.163 490.5,673.5C 487.549,668.165 485.549,663.165 484.5,658.5C 483.252,656.034 482.252,653.701 481.5,651.5C 482.833,650.833 482.833,650.167 481.5,649.5C 481.672,648.508 481.338,647.842 480.5,647.5C 478.466,644.528 477.466,641.528 477.5,638.5C 476.788,636.072 475.788,633.739 474.5,631.5C 475.705,630.005 475.705,628.672 474.5,627.5C 473.254,623.708 471.921,619.875 470.5,616C 470.833,615 471.167,614 471.5,613C 470.129,608.7 468.795,604.033 467.5,599C 468.754,595.354 468.754,591.854 467.5,588.5C 467.5,581.833 467.5,575.167 467.5,568.5C 468.705,565.322 468.705,561.988 467.5,558.5C 467.818,557.353 468.484,556.519 469.5,556C 468.978,555.439 468.645,554.772 468.5,554C 469.274,551.846 469.941,549.679 470.5,547.5C 471.791,546.458 471.791,545.292 470.5,544C 472.098,540.934 473.764,537.767 475.5,534.5C 475.376,533.893 475.043,533.56 474.5,533.5C 475.937,531.473 477.27,529.306 478.5,527C 477.549,526.282 477.383,525.449 478,524.5C 479.167,522.667 480.667,521.167 482.5,520C 481.701,517.772 482.701,516.439 485.5,516C 484.655,514.442 485.321,513.442 487.5,513C 487.167,512.667 486.833,512.333 486.5,512C 493.141,503.297 500.474,496.631 508.5,492C 508.167,491.667 507.833,491.333 507.5,491C 508.931,490.535 510.097,489.701 511,488.5C 511.333,488.833 511.667,489.167 512,489.5C 515.304,486.834 518.638,484.168 522,481.5C 522.333,481.833 522.667,482.167 523,482.5C 526.531,480.421 529.864,478.088 533,475.5C 533.977,476.774 534.811,476.774 535.5,475.5C 537.527,474.063 539.694,472.73 542,471.5C 542.977,472.774 543.811,472.774 544.5,471.5C 547.263,469.742 549.93,468.742 552.5,468.5C 554.963,468.219 557.13,467.219 559,465.5C 560.292,466.791 561.458,466.791 562.5,465.5C 565.843,464.381 569.177,463.048 572.5,461.5C 573.995,462.705 575.328,462.705 576.5,461.5C 578.55,461.039 580.55,460.372 582.5,459.5C 583.962,460.471 585.295,460.138 586.5,458.5C 589.764,459.465 592.764,459.465 595.5,458.5C 599.561,456.021 603.894,455.354 608.5,456.5C 613.755,455.916 618.922,454.916 624,453.5C 625.107,453.585 626.107,453.919 627,454.5C 630.284,452.26 633.784,451.927 637.5,453.5C 641.702,452.049 646.035,451.382 650.5,451.5C 661.496,452.388 672.496,452.555 683.5,452C 686.77,452.995 690.103,453.828 693.5,454.5C 693.023,455.478 692.357,456.311 691.5,457C 689.321,456.716 687.321,456.883 685.5,457.5 Z"/></g>
<g><path style="opacity:0.004" fill="#000000" d="M 9.5,457.5 C 10.8333,458.167 10.8333,458.167 9.5,457.5 Z"/></g>
<g><path style="opacity:0.004" fill="#000000" d="M 104.5,458.5 C 104.897,457.475 105.563,457.308 106.5,458C 105.906,458.464 105.239,458.631 104.5,458.5 Z"/></g>
<g><path style="opacity:0.004" fill="#000000" d="M 589.5,458.5 C 589.897,457.475 590.563,457.308 591.5,458C 590.906,458.464 590.239,458.631 589.5,458.5 Z"/></g>
<g><path style="opacity:0.004" fill="#000000" d="M 685.5,457.5 C 686.833,458.167 686.833,458.167 685.5,457.5 Z"/></g>
<g><path style="opacity:0.004" fill="#a31ea2" d="M 25.5,460.5 C 25.1034,461.525 24.4368,461.692 23.5,461C 24.0944,460.536 24.7611,460.369 25.5,460.5 Z"/></g>
<g><path style="opacity:0.004" fill="#000000" d="M 119.5,460.5 C 120.833,461.167 120.833,461.167 119.5,460.5 Z"/></g>
<g><path style="opacity:0.004" fill="#000000" d="M 576.5,461.5 C 575.833,460.167 575.833,460.167 576.5,461.5 Z"/></g>
<g><path style="opacity:0.004" fill="#00ff00" d="M 671.5,460.5 C 672.833,461.167 672.833,461.167 671.5,460.5 Z"/></g>
<g><path style="opacity:0.004" fill="#000000" d="M 35.5,464.5 C 35.8966,463.475 36.5632,463.308 37.5,464C 36.9056,464.464 36.2389,464.631 35.5,464.5 Z"/></g>
<g><path style="opacity:0.004" fill="#000000" d="M 658.5,463.5 C 659.239,463.369 659.906,463.536 660.5,464C 659.563,464.692 658.897,464.525 658.5,463.5 Z"/></g>
<g><path style="opacity:0.004" fill="#fe00ff" d="M 134.5,464.5 C 135.833,465.167 135.833,465.167 134.5,464.5 Z"/></g>
<g><path style="opacity:0.008" fill="#14540c" d="M 562.5,465.5 C 561.761,465.631 561.094,465.464 560.5,465C 561.437,464.308 562.103,464.475 562.5,465.5 Z"/></g>
<g><path style="opacity:0.004" fill="#000000" d="M 144.5,467.5 C 145.833,468.167 145.833,468.167 144.5,467.5 Z"/></g>
<g><path style="opacity:0.004" fill="#000000" d="M 552.5,468.5 C 551.833,467.167 551.833,467.167 552.5,468.5 Z"/></g>
<g><path style="opacity:0.004" fill="#240fa2" d="M 62.5,470.5 C 62.1034,471.525 61.4368,471.692 60.5,471C 61.0944,470.536 61.7611,470.369 62.5,470.5 Z"/></g>
<g><path style="opacity:0.004" fill="#000000" d="M 152.5,470.5 C 153.833,471.167 153.833,471.167 152.5,470.5 Z"/></g>
<g><path style="opacity:0.004" fill="#000000" d="M 544.5,471.5 C 543.833,470.167 543.833,470.167 544.5,471.5 Z"/></g>
<g><path style="opacity:0.004" fill="#000000" d="M 635.5,470.5 C 636.833,471.167 636.833,471.167 635.5,470.5 Z"/></g>
<g><path style="opacity:0.004" fill="#000000" d="M 71.5,473.5 C 70.8333,474.167 70.8333,474.167 71.5,473.5 Z"/></g>
<g><path style="opacity:0.004" fill="#000000" d="M 625.5,473.5 C 626.167,473.5 626.833,473.5 627.5,473.5C 626.833,474.833 626.167,474.833 625.5,473.5 Z"/></g>
<g><path style="opacity:0.004" fill="#000000" d="M 161.5,474.5 C 162.833,475.167 162.833,475.167 161.5,474.5 Z"/></g>
<g><path style="opacity:0.004" fill="#000000" d="M 535.5,475.5 C 534.833,474.167 534.833,474.167 535.5,475.5 Z"/></g>
<g><path style="opacity:0.004" fill="#000000" d="M 608.5,480.5 C 608.833,480.5 609.167,480.5 609.5,480.5C 609.315,481.17 608.981,481.17 608.5,480.5 Z"/></g>
<g><path style="opacity:0.004" fill="#0000ff" d="M 96.5,483.5 C 95.8333,484.167 95.8333,484.167 96.5,483.5 Z"/></g>
<g><path style="opacity:0.004" fill="#fe00ff" d="M 110.5,490.5 C 109.833,491.167 109.833,491.167 110.5,490.5 Z"/></g>
<g><path style="opacity:0.004" fill="#000000" d="M 581.5,493.5 C 581.833,493.5 582.167,493.5 582.5,493.5C 582.315,494.17 581.981,494.17 581.5,493.5 Z"/></g>
<g><path style="opacity:0.004" fill="#000000" d="M 560.5,507.5 C 560.833,507.5 561.167,507.5 561.5,507.5C 561.315,508.17 560.981,508.17 560.5,507.5 Z"/></g>
<g><path style="opacity:0.004" fill="#0000ff" d="M 221.5,528.5 C 222.833,529.167 222.833,529.167 221.5,528.5 Z"/></g>
<g><path style="opacity:0.004" fill="#000000" d="M 474.5,533.5 C 473.833,534.167 473.833,534.167 474.5,533.5 Z"/></g>
<g><path style="opacity:0.004" fill="#000000" d="M 225.5,538.5 C 226.833,539.167 226.833,539.167 225.5,538.5 Z"/></g>
<g><path style="opacity:0.004" fill="#000000" d="M 131.5,541.5 C 130.833,540.167 130.833,540.167 131.5,541.5 Z"/></g>
<g><path style="opacity:0.004" fill="#000000" d="M 142.5,540.5 C 143.833,541.167 143.833,541.167 142.5,540.5 Z"/></g>
<g><path style="opacity:0.004" fill="#000000" d="M 552.5,541.5 C 551.833,540.167 551.833,540.167 552.5,541.5 Z"/></g>
<g><path style="opacity:0.004" fill="#000000" d="M 569.5,540.5 C 570.833,541.167 570.833,541.167 569.5,540.5 Z"/></g>
<g><path style="opacity:0.004" fill="#000000" d="M 128.5,542.5 C 127.833,541.167 127.833,541.167 128.5,542.5 Z"/></g>
<g><path style="opacity:0.004" fill="#0000ff" d="M 145.5,541.5 C 146.833,542.167 146.833,542.167 145.5,541.5 Z"/></g>
<g><path style="opacity:0.004" fill="#000000" d="M 550.5,542.5 C 549.833,541.167 549.833,541.167 550.5,542.5 Z"/></g>
<g><path style="opacity:0.004" fill="#00ff00" d="M 571.5,541.5 C 572.833,542.167 572.833,542.167 571.5,541.5 Z"/></g>
<g><path style="opacity:0.999" fill="#8a07c8" d="M 145.5,542.5 C 146.189,543.774 147.023,543.774 148,542.5C 149.333,543.833 150.667,545.167 152,546.5C 152.333,546.167 152.667,545.833 153,545.5C 157.2,549.421 160.867,553.754 164,558.5C 162.999,561.198 163.499,563.698 165.5,566C 164.549,569.057 164.216,572.223 164.5,575.5C 163.347,576.313 163.347,577.313 164.5,578.5C 163.687,579.814 162.687,580.981 161.5,582C 161.833,582.333 162.167,582.667 162.5,583C 157.209,588.961 150.543,593.794 142.5,597.5C 138.833,596.167 135.167,596.167 131.5,597.5C 128.643,596.804 126.143,595.471 124,593.5C 123.667,593.833 123.333,594.167 123,594.5C 121.667,592.833 120.333,591.167 119,589.5C 118.667,589.833 118.333,590.167 118,590.5C 115.481,588.513 113.981,586.347 113.5,584C 110.811,581.78 109.478,579.28 109.5,576.5C 108.167,571.5 108.167,566.5 109.5,561.5C 110.774,560.811 110.774,559.977 109.5,559C 111.43,556.742 112.93,554.242 114,551.5C 118.023,547.844 122.023,544.844 126,542.5C 126.977,543.774 127.811,543.774 128.5,542.5C 129.791,542.737 130.791,542.404 131.5,541.5C 133.288,541.029 135.122,540.696 137,540.5C 139.761,541.418 142.594,542.084 145.5,542.5 Z"/></g>
<g><path style="opacity:0.004" fill="#000000" d="M 526.5,543.5 C 527.833,544.167 527.833,544.167 526.5,543.5 Z"/></g>
<g><path style="opacity:1" fill="#098137" d="M 569.5,541.5 C 569.842,542.338 570.508,542.672 571.5,542.5C 572.189,543.774 573.023,543.774 574,542.5C 574.915,543.328 575.581,544.328 576,545.5C 576.333,545.167 576.667,544.833 577,544.5C 579.125,545.676 581.291,547.509 583.5,550C 583.167,550.333 582.833,550.667 582.5,551C 584.764,554.468 587.098,557.968 589.5,561.5C 588.201,565.964 588.201,570.298 589.5,574.5C 588.99,577.086 587.99,579.419 586.5,581.5C 585.167,581.833 585.167,582.167 586.5,582.5C 583.756,585.155 581.756,587.821 580.5,590.5C 580.167,589.167 579.833,589.167 579.5,590.5C 578.145,592.929 576.478,594.262 574.5,594.5C 574.167,593.167 573.833,593.167 573.5,594.5C 571.066,595.794 568.733,596.794 566.5,597.5C 563.657,596.229 560.823,596.229 558,597.5C 556.739,597.241 555.739,596.574 555,595.5C 554.667,595.833 554.333,596.167 554,596.5C 550.479,595.335 546.979,593.501 543.5,591C 543.833,590.667 544.167,590.333 544.5,590C 541.567,587.909 539.233,585.409 537.5,582.5C 536.524,581.185 535.524,579.852 534.5,578.5C 535.653,577.313 535.653,576.313 534.5,575.5C 533.167,570.833 533.167,566.167 534.5,561.5C 535.653,560.687 535.653,559.687 534.5,558.5C 535.313,557.186 536.313,556.019 537.5,555C 536.366,553.984 536.699,553.317 538.5,553C 538.167,552.667 537.833,552.333 537.5,552C 539.833,551 541.5,549.333 542.5,547C 543.5,546.667 544.5,546.333 545.5,546C 545.167,545.667 544.833,545.333 544.5,545C 546.528,543.26 548.528,542.427 550.5,542.5C 551.492,542.672 552.158,542.338 552.5,541.5C 558.462,538.957 564.129,538.957 569.5,541.5 Z"/></g>
<g><path style="opacity:0.004" fill="#000000" d="M 470.5,547.5 C 469.833,546.167 469.833,546.167 470.5,547.5 Z"/></g>
<g><path style="opacity:0.004" fill="#000000" d="M 228.5,550.5 C 228.369,549.761 228.536,549.094 229,548.5C 229.692,549.437 229.525,550.103 228.5,550.5 Z"/></g>
<g><path style="opacity:0.004" fill="#000000" d="M 522.5,550.5 C 523.833,551.167 523.833,551.167 522.5,550.5 Z"/></g>
<g><path style="opacity:0.004" fill="#000000" d="M 519.5,557.5 C 520.833,558.167 520.833,558.167 519.5,557.5 Z"/></g>
<g><path style="opacity:0.004" fill="#fe00ff" d="M 109.5,561.5 C 108.833,560.167 108.833,560.167 109.5,561.5 Z"/></g>
<g><path style="opacity:0.004" fill="#000000" d="M 534.5,561.5 C 533.833,560.167 533.833,560.167 534.5,561.5 Z"/></g>
<g><path style="opacity:0.004" fill="#fe00ff" d="M 164.5,561.5 C 165.833,562.167 165.833,562.167 164.5,561.5 Z"/></g>
<g><path style="opacity:0.004" fill="#000000" d="M 107.5,563.5 C 108.833,564.167 108.833,564.167 107.5,563.5 Z"/></g>
<g><path style="opacity:0.004" fill="#237719" d="M 589.5,563.5 C 590.573,564.251 590.74,565.251 590,566.5C 589.517,565.552 589.351,564.552 589.5,563.5 Z"/></g>
<g><path style="opacity:0.004" fill="#248019" d="M 467.5,568.5 C 466.387,567.054 466.22,565.387 467,563.5C 467.494,565.134 467.66,566.801 467.5,568.5 Z"/></g>
<g><path style="opacity:0.004" fill="#000000" d="M 516.5,565.5 C 517.833,566.167 517.833,566.167 516.5,565.5 Z"/></g>
<g><path style="opacity:0.004" fill="#101d08" d="M 589.5,574.5 C 589.343,573.127 589.51,571.793 590,570.5C 590.765,572.066 590.598,573.399 589.5,574.5 Z"/></g>
<g><path style="opacity:0.004" fill="#000000" d="M 107.5,573.5 C 108.833,574.167 108.833,574.167 107.5,573.5 Z"/></g>
<g><path style="opacity:0.004" fill="#c316c2" d="M 231.5,571.5 C 232.65,576.316 232.816,581.316 232,586.5C 231.501,581.511 231.334,576.511 231.5,571.5 Z"/></g>
<g><path style="opacity:0.004" fill="#fe00ff" d="M 164.5,575.5 C 165.833,576.167 165.833,576.167 164.5,575.5 Z"/></g>
<g><path style="opacity:0.004" fill="#00ff00" d="M 534.5,575.5 C 533.833,576.167 533.833,576.167 534.5,575.5 Z"/></g>
<g><path style="opacity:0.004" fill="#0000ff" d="M 109.5,576.5 C 108.833,577.167 108.833,577.167 109.5,576.5 Z"/></g>
<g><path style="opacity:0.004" fill="#132c0c" d="M 512.5,577.5 C 513.525,577.897 513.692,578.563 513,579.5C 512.536,578.906 512.369,578.239 512.5,577.5 Z"/></g>
<g><path style="opacity:0.004" fill="#fe00ff" d="M 185.5,580.5 C 186.833,581.167 186.833,581.167 185.5,580.5 Z"/></g>
<g><path style="opacity:0.004" fill="#000000" d="M 586.5,581.5 C 587.833,582.167 587.833,582.167 586.5,581.5 Z"/></g>
<g><path style="opacity:0.004" fill="#000000" d="M 537.5,582.5 C 536.833,583.167 536.833,583.167 537.5,582.5 Z"/></g>
<g><path style="opacity:0.004" fill="#193512" d="M 467.5,588.5 C 467.657,589.873 467.49,591.207 467,592.5C 466.235,590.934 466.402,589.601 467.5,588.5 Z"/></g>
<g><path style="opacity:0.004" fill="#000000" d="M 579.5,590.5 C 579.833,590.5 580.167,590.5 580.5,590.5C 580.315,591.17 579.981,591.17 579.5,590.5 Z"/></g>
<g><path style="opacity:0.004" fill="#22b816" d="M 509.5,591.5 C 510.573,592.251 510.74,593.251 510,594.5C 509.517,593.552 509.351,592.552 509.5,591.5 Z"/></g>
<g><path style="opacity:0.004" fill="#000000" d="M 573.5,594.5 C 573.833,594.5 574.167,594.5 574.5,594.5C 574.315,595.17 573.981,595.17 573.5,594.5 Z"/></g>
<g><path style="opacity:0.004" fill="#c8f0ff" d="M 188.5,595.5 C 189.525,595.897 189.692,596.563 189,597.5C 188.536,596.906 188.369,596.239 188.5,595.5 Z"/></g>
<g><path style="opacity:0.004" fill="#000000" d="M 134.5,598.5 C 135.251,597.427 136.251,597.26 137.5,598C 136.552,598.483 135.552,598.649 134.5,598.5 Z"/></g>
<g><path style="opacity:0.004" fill="#130423" d="M 337.5,599.5 C 338.251,598.427 339.251,598.26 340.5,599C 339.552,599.483 338.552,599.649 337.5,599.5 Z"/></g>
<g><path style="opacity:0.008" fill="#14067c" d="M 356.5,599.5 C 357.601,598.402 358.934,598.235 360.5,599C 359.207,599.49 357.873,599.657 356.5,599.5 Z"/></g>
<g><path style="opacity:0.998" fill="#0f559b" d="M 356.5,599.5 C 358.847,600.716 361.347,600.716 364,599.5C 367.267,600.273 370.434,601.273 373.5,602.5C 374.313,603.653 375.313,603.653 376.5,602.5C 377.192,603.025 377.692,603.692 378,604.5C 378.333,604.167 378.667,603.833 379,603.5C 380.991,605.905 383.324,606.572 386,605.5C 387.271,606.883 388.771,607.883 390.5,608.5C 393.473,609.096 396.306,610.763 399,613.5C 399.333,613.167 399.667,612.833 400,612.5C 401.667,613.833 403.333,615.167 405,616.5C 405.333,616.167 405.667,615.833 406,615.5C 407.667,617.167 409.333,618.833 411,620.5C 412,620.5 413,620.5 414,620.5C 414.483,621.448 414.649,622.448 414.5,623.5C 419.262,623.963 422.762,626.296 425,630.5C 425.333,630.167 425.667,629.833 426,629.5C 436.152,638.64 446.319,648.474 456.5,659C 456.167,659.333 455.833,659.667 455.5,660C 462.304,666.266 467.971,672.766 472.5,679.5C 471.167,679.833 471.167,680.167 472.5,680.5C 473.936,681.429 475.269,682.595 476.5,684C 476.167,684.333 475.833,684.667 475.5,685C 477.053,686.097 478.386,687.43 479.5,689C 479.167,689.333 478.833,689.667 478.5,690C 480.027,691.032 481.36,692.199 482.5,693.5C 481.167,693.833 481.167,694.167 482.5,694.5C 486.157,698.841 489.49,703.508 492.5,708.5C 491.167,708.833 491.167,709.167 492.5,709.5C 496.585,714.8 499.918,720.133 502.5,725.5C 501.167,725.833 501.167,726.167 502.5,726.5C 504.226,728.228 505.559,730.228 506.5,732.5C 505.167,732.833 505.167,733.167 506.5,733.5C 509.138,738.483 511.805,743.483 514.5,748.5C 514.192,749.308 513.692,749.975 513,750.5C 508.579,746.586 504.746,742.252 501.5,737.5C 501.167,736.167 500.833,736.167 500.5,737.5C 499.562,734.843 497.562,732.51 494.5,730.5C 482.662,717.798 470.496,706.131 458,695.5C 457.667,695.833 457.333,696.167 457,696.5C 453.657,693.833 450.657,690.833 448,687.5C 447.667,687.833 447.333,688.167 447,688.5C 441.431,684.763 436.598,681.096 432.5,677.5C 432.167,676.167 431.833,676.167 431.5,677.5C 429.871,676.375 428.371,675.041 427,673.5C 425.984,674.634 425.317,674.301 425,672.5C 423.251,673.299 421.918,672.632 421,670.5C 420.667,670.833 420.333,671.167 420,671.5C 418.666,669.497 417.166,667.997 415.5,667C 414.551,666.383 413.718,666.549 413,667.5C 411.6,666.252 410.1,665.252 408.5,664.5C 408.167,663.167 407.833,663.167 407.5,664.5C 405.255,663.904 403.255,662.904 401.5,661.5C 400.811,660.226 399.977,660.226 399,661.5C 398.683,659.699 398.016,659.366 397,660.5C 394.966,658.968 392.799,657.635 390.5,656.5C 387.2,657.24 384.2,656.407 381.5,654C 379.765,653.349 378.098,653.515 376.5,654.5C 375.808,653.975 375.308,653.308 375,652.5C 374.439,653.022 373.772,653.355 373,653.5C 370.846,652.726 368.679,652.059 366.5,651.5C 363.994,650.337 361.327,650.337 358.5,651.5C 357.328,651.081 356.328,650.415 355.5,649.5C 350.969,650.811 346.469,650.811 342,649.5C 341.196,650.804 340.029,651.471 338.5,651.5C 336.002,650.37 333.668,650.37 331.5,651.5C 326.69,652.934 322.023,653.934 317.5,654.5C 314.927,655.219 312.427,656.219 310,657.5C 308.951,656.483 307.784,656.316 306.5,657C 301.263,659.849 295.93,662.349 290.5,664.5C 290.167,663.167 289.833,663.167 289.5,664.5C 287.9,665.252 286.4,666.252 285,667.5C 283.984,666.366 283.317,666.699 283,668.5C 282.667,668.167 282.333,667.833 282,667.5C 280.649,669.019 279.149,670.352 277.5,671.5C 276.914,671.291 276.414,670.957 276,670.5C 274.791,672.184 273.291,673.517 271.5,674.5C 271.167,673.167 270.833,673.167 270.5,674.5C 264.185,679.266 257.518,683.6 250.5,687.5C 245.698,692.422 240.365,696.756 234.5,700.5C 229.832,704.138 225.498,708.305 221.5,713C 218.667,713.167 217.167,714.667 217,717.5C 216.667,717.167 216.333,716.833 216,716.5C 212.29,719.586 209.29,723.253 207,727.5C 205.841,726.434 205.008,726.767 204.5,728.5C 203.167,728.833 203.167,729.167 204.5,729.5C 197.006,735.805 190.673,742.639 185.5,750C 184.068,750.27 183.068,749.604 182.5,748C 184.301,747.683 184.634,747.016 183.5,746C 185.056,745.28 186.056,744.113 186.5,742.5C 187.774,741.811 187.774,740.977 186.5,740C 188.575,736.761 190.908,733.428 193.5,730C 193.167,729.667 192.833,729.333 192.5,729C 193.614,727.43 194.947,726.097 196.5,725C 196.5,724 196.5,723 196.5,722C 197.328,721.085 198.328,720.419 199.5,720C 199.5,719 199.5,718 199.5,717C 201.167,715.333 202.833,713.667 204.5,712C 204.167,711.667 203.833,711.333 203.5,711C 206.504,708.646 208.838,705.646 210.5,702C 209.655,700.442 210.321,699.442 212.5,699C 211.72,697.927 211.887,696.76 213,695.5C 214.5,694.333 216,693.167 217.5,692C 216.655,690.442 217.321,689.442 219.5,689C 219.5,688 219.5,687 219.5,686C 221.159,683.003 223.826,680.336 227.5,678C 227.041,676.057 228.041,674.724 230.5,674C 230.167,673.667 229.833,673.333 229.5,673C 230.716,671.26 232.382,670.26 234.5,670C 233.306,667.342 234.306,666.176 237.5,666.5C 238.485,662.67 240.819,659.837 244.5,658C 244.167,657.667 243.833,657.333 243.5,657C 253.564,647.014 263.731,637.181 274,627.5C 274.333,627.833 274.667,628.167 275,628.5C 275.442,626.321 276.442,625.655 278,626.5C 280.982,623.792 283.649,621.459 286,619.5C 286.333,619.833 286.667,620.167 287,620.5C 290.011,616.754 293.345,614.088 297,612.5C 299.464,613.526 301.298,612.692 302.5,610C 303.449,609.383 304.282,609.549 305,610.5C 305.995,609.934 306.828,609.267 307.5,608.5C 309.187,607.133 310.853,606.133 312.5,605.5C 313.086,605.709 313.586,606.043 314,606.5C 316.606,605.401 319.106,604.068 321.5,602.5C 322.687,603.653 323.687,603.653 324.5,602.5C 325.75,602.423 326.583,601.756 327,600.5C 327.414,600.957 327.914,601.291 328.5,601.5C 330.295,600.735 332.128,600.068 334,599.5C 341.445,599.841 348.945,599.841 356.5,599.5 Z"/></g>
<g><path style="opacity:0.004" fill="#0000ff" d="M 324.5,602.5 C 323.833,601.167 323.833,601.167 324.5,602.5 Z"/></g>
<g><path style="opacity:0.004" fill="#0000ff" d="M 373.5,601.5 C 374.833,602.167 374.833,602.167 373.5,601.5 Z"/></g>
<g><path style="opacity:0.004" fill="#000000" d="M 307.5,608.5 C 306.833,607.167 306.833,607.167 307.5,608.5 Z"/></g>
<g><path style="opacity:0.004" fill="#000000" d="M 390.5,607.5 C 391.833,608.167 391.833,608.167 390.5,607.5 Z"/></g>
<g><path style="opacity:0.004" fill="#501a4e" d="M 228.5,609.5 C 229.525,609.897 229.692,610.563 229,611.5C 228.536,610.906 228.369,610.239 228.5,609.5 Z"/></g>
<g><path style="opacity:0.004" fill="#fe00ff" d="M 224.5,626.5 C 225.833,627.167 225.833,627.167 224.5,626.5 Z"/></g>
<g><path style="opacity:0.004" fill="#00ff00" d="M 474.5,627.5 C 473.833,628.167 473.833,628.167 474.5,627.5 Z"/></g>
<g><path style="opacity:0.004" fill="#fe00ff" d="M 221.5,637.5 C 222.833,638.167 222.833,638.167 221.5,637.5 Z"/></g>
<g><path style="opacity:0.004" fill="#000000" d="M 477.5,638.5 C 476.833,639.167 476.833,639.167 477.5,638.5 Z"/></g>
<g><path style="opacity:0.004" fill="#000000" d="M 480.5,647.5 C 479.833,648.167 479.833,648.167 480.5,647.5 Z"/></g>
<g><path style="opacity:0.004" fill="#132c0c" d="M 481.5,649.5 C 481.5,650.167 481.5,650.833 481.5,651.5C 480.167,650.833 480.167,650.167 481.5,649.5 Z"/></g>
<g><path style="opacity:0.004" fill="#000000" d="M 331.5,651.5 C 332.239,651.369 332.906,651.536 333.5,652C 332.563,652.692 331.897,652.525 331.5,651.5 Z"/></g>
<g><path style="opacity:0.004" fill="#000000" d="M 366.5,651.5 C 365.833,652.167 365.833,652.167 366.5,651.5 Z"/></g>
<g><path style="opacity:0.004" fill="#9313b9" d="M 188.5,652.5 C 189.573,653.251 189.74,654.251 189,655.5C 188.517,654.552 188.351,653.552 188.5,652.5 Z"/></g>
<g><path style="opacity:0.004" fill="#000000" d="M 317.5,654.5 C 318.833,655.167 318.833,655.167 317.5,654.5 Z"/></g>
<g><path style="opacity:0.004" fill="#000000" d="M 379.5,654.5 C 380.833,655.167 380.833,655.167 379.5,654.5 Z"/></g>
<g><path style="opacity:0.004" fill="#fe00ff" d="M 214.5,657.5 C 215.833,658.167 215.833,658.167 214.5,657.5 Z"/></g>
<g><path style="opacity:0.004" fill="#000000" d="M 307.5,657.5 C 308.833,658.167 308.833,658.167 307.5,657.5 Z"/></g>
<g><path style="opacity:0.004" fill="#237719" d="M 509.5,656.5 C 510.573,657.251 510.74,658.251 510,659.5C 509.517,658.552 509.351,657.552 509.5,656.5 Z"/></g>
<g><path style="opacity:0.004" fill="#000000" d="M 484.5,658.5 C 483.833,659.167 483.833,659.167 484.5,658.5 Z"/></g>
<g><path style="opacity:0.004" fill="#000000" d="M 401.5,661.5 C 400.833,662.167 400.833,662.167 401.5,661.5 Z"/></g>
<g><path style="opacity:0.004" fill="#000000" d="M 289.5,664.5 C 289.833,664.5 290.167,664.5 290.5,664.5C 290.315,665.17 289.981,665.17 289.5,664.5 Z"/></g>
<g><path style="opacity:0.004" fill="#000000" d="M 357.5,664.5 C 358.833,665.167 358.833,665.167 357.5,664.5 Z"/></g>
<g><path style="opacity:0.004" fill="#0000ff" d="M 407.5,664.5 C 407.833,664.5 408.167,664.5 408.5,664.5C 408.315,665.17 407.981,665.17 407.5,664.5 Z"/></g>
<g><path style="opacity:0.998" fill="#0e559b" d="M 357.5,665.5 C 360.28,665.478 362.78,666.811 365,669.5C 365.333,669.167 365.667,668.833 366,668.5C 367.67,672.08 370.17,674.914 373.5,677C 372.366,678.016 372.699,678.683 374.5,679C 373.366,680.016 373.699,680.683 375.5,681C 374.226,681.977 374.226,682.811 375.5,683.5C 375.555,686.231 376.221,689.064 377.5,692C 377.561,694.261 376.894,696.261 375.5,698C 375.833,698.333 376.167,698.667 376.5,699C 374.689,700.041 374.355,701.207 375.5,702.5C 374.925,704.411 373.925,706.078 372.5,707.5C 370.185,711.815 366.851,715.149 362.5,717.5C 362.167,716.167 361.833,716.167 361.5,717.5C 358.249,719.411 355.083,720.745 352,721.5C 349.333,720.167 346.667,720.167 344,721.5C 340.781,720.805 337.947,719.472 335.5,717.5C 335.167,716.167 334.833,716.167 334.5,717.5C 332.737,714.731 329.904,712.397 326,710.5C 324.955,706.64 323.121,702.807 320.5,699C 321.803,694.82 321.803,690.653 320.5,686.5C 321.994,684.426 323.327,682.26 324.5,680C 324.167,679.667 323.833,679.333 323.5,679C 325.607,675.852 328.441,672.685 332,669.5C 332.333,669.833 332.667,670.167 333,670.5C 334.708,668.457 336.708,666.79 339,665.5C 339.414,665.957 339.914,666.291 340.5,666.5C 343.439,665.881 346.439,664.881 349.5,663.5C 352.205,665.049 354.872,665.715 357.5,665.5 Z"/></g>
<g><path style="opacity:0.004" fill="#000000" d="M 208.5,672.5 C 209.833,673.167 209.833,673.167 208.5,672.5 Z"/></g>
<g><path style="opacity:0.004" fill="#000000" d="M 490.5,673.5 C 489.833,674.167 489.833,674.167 490.5,673.5 Z"/></g>
<g><path style="opacity:0.004" fill="#240fa2" d="M 186.5,675.5 C 185.475,675.103 185.308,674.437 186,673.5C 186.464,674.094 186.631,674.761 186.5,675.5 Z"/></g>
<g><path style="opacity:0.004" fill="#000000" d="M 270.5,674.5 C 270.833,674.5 271.167,674.5 271.5,674.5C 271.315,675.17 270.981,675.17 270.5,674.5 Z"/></g>
<g><path style="opacity:0.004" fill="#0000ff" d="M 431.5,677.5 C 431.833,677.5 432.167,677.5 432.5,677.5C 432.315,678.17 431.981,678.17 431.5,677.5 Z"/></g>
<g><path style="opacity:0.004" fill="#0000ff" d="M 472.5,679.5 C 473.833,680.167 473.833,680.167 472.5,679.5 Z"/></g>
<g><path style="opacity:0.004" fill="#0000ff" d="M 204.5,680.5 C 205.833,681.167 205.833,681.167 204.5,680.5 Z"/></g>
<g><path style="opacity:0.004" fill="#000000" d="M 494.5,681.5 C 493.833,682.167 493.833,682.167 494.5,681.5 Z"/></g>
<g><path style="opacity:0.004" fill="#000000" d="M 375.5,682.5 C 376.833,683.167 376.833,683.167 375.5,682.5 Z"/></g>
<g><path style="opacity:0.004" fill="#000000" d="M 201.5,687.5 C 202.833,688.167 202.833,688.167 201.5,687.5 Z"/></g>
<g><path style="opacity:0.004" fill="#0000ff" d="M 250.5,687.5 C 251.833,688.167 251.833,688.167 250.5,687.5 Z"/></g>
<g><path style="opacity:0.004" fill="#000000" d="M 181.5,691.5 C 182.833,692.167 182.833,692.167 181.5,691.5 Z"/></g>
<g><path style="opacity:0.004" fill="#000000" d="M 319.5,691.5 C 320.598,692.601 320.765,693.934 320,695.5C 319.51,694.207 319.343,692.873 319.5,691.5 Z"/></g>
<g><path style="opacity:0.004" fill="#000000" d="M 198.5,693.5 C 199.833,694.167 199.833,694.167 198.5,693.5 Z"/></g>
<g><path style="opacity:0.004" fill="#000000" d="M 482.5,693.5 C 483.833,694.167 483.833,694.167 482.5,693.5 Z"/></g>
<g><path style="opacity:0.004" fill="#000000" d="M 516.5,693.5 C 517.833,694.167 517.833,694.167 516.5,693.5 Z"/></g>
<g><path style="opacity:0.004" fill="#0000ff" d="M 194.5,700.5 C 195.833,701.167 195.833,701.167 194.5,700.5 Z"/></g>
<g><path style="opacity:0.004" fill="#000000" d="M 234.5,700.5 C 235.833,701.167 235.833,701.167 234.5,700.5 Z"/></g>
<g><path style="opacity:0.004" fill="#000000" d="M 375.5,701.5 C 376.833,702.167 376.833,702.167 375.5,701.5 Z"/></g>
<g><path style="opacity:0.004" fill="#fe00ff" d="M 179.5,704.5 C 178.833,703.167 178.833,703.167 179.5,704.5 Z"/></g>
<g><path style="opacity:0.004" fill="#00ff00" d="M 519.5,705.5 C 520.833,706.167 520.833,706.167 519.5,705.5 Z"/></g>
<g><path style="opacity:0.004" fill="#fe00ff" d="M 191.5,706.5 C 192.833,707.167 192.833,707.167 191.5,706.5 Z"/></g>
<g><path style="opacity:0.004" fill="#000000" d="M 372.5,707.5 C 373.833,708.167 373.833,708.167 372.5,707.5 Z"/></g>
<g><path style="opacity:0.004" fill="#000000" d="M 492.5,708.5 C 493.833,709.167 493.833,709.167 492.5,708.5 Z"/></g>
<g><path style="opacity:0.004" fill="#240fa2" d="M 176.5,715.5 C 175.475,715.103 175.308,714.437 176,713.5C 176.464,714.094 176.631,714.761 176.5,715.5 Z"/></g>
<g><path style="opacity:0.004" fill="#000000" d="M 522.5,715.5 C 523.833,716.167 523.833,716.833 522.5,717.5C 522.5,716.833 522.5,716.167 522.5,715.5 Z"/></g>
<g><path style="opacity:0.004" fill="#000000" d="M 175.5,717.5 C 174.833,716.167 174.833,716.167 175.5,717.5 Z"/></g>
<g><path style="opacity:0.004" fill="#000000" d="M 334.5,717.5 C 334.833,717.5 335.167,717.5 335.5,717.5C 335.315,718.17 334.981,718.17 334.5,717.5 Z"/></g>
<g><path style="opacity:0.004" fill="#000000" d="M 361.5,717.5 C 361.833,717.5 362.167,717.5 362.5,717.5C 362.315,718.17 361.981,718.17 361.5,717.5 Z"/></g>
<g><path style="opacity:0.004" fill="#000000" d="M 523.5,718.5 C 524.833,719.167 524.833,719.167 523.5,718.5 Z"/></g>
<g><path style="opacity:0.004" fill="#fe00ff" d="M 181.5,723.5 C 182.833,724.167 182.833,724.167 181.5,723.5 Z"/></g>
<g><path style="opacity:0.004" fill="#000000" d="M 502.5,725.5 C 503.833,726.167 503.833,726.167 502.5,725.5 Z"/></g>
<g><path style="opacity:0.004" fill="#000000" d="M 204.5,728.5 C 205.833,729.167 205.833,729.167 204.5,728.5 Z"/></g>
<g><path style="opacity:0.004" fill="#000000" d="M 526.5,728.5 C 527.833,729.167 527.833,729.167 526.5,728.5 Z"/></g>
<g><path style="opacity:0.004" fill="#000000" d="M 494.5,730.5 C 493.833,731.167 493.833,731.167 494.5,730.5 Z"/></g>
<g><path style="opacity:0.004" fill="#000000" d="M 506.5,732.5 C 507.833,733.167 507.833,733.167 506.5,732.5 Z"/></g>
<g><path style="opacity:0.004" fill="#fe00ff" d="M 169.5,737.5 C 168.833,736.167 168.833,736.167 169.5,737.5 Z"/></g>
<g><path style="opacity:0.004" fill="#0000ff" d="M 500.5,737.5 C 500.833,737.5 501.167,737.5 501.5,737.5C 501.315,738.17 500.981,738.17 500.5,737.5 Z"/></g>
<g><path style="opacity:0.004" fill="#000000" d="M 186.5,742.5 C 185.833,741.167 185.833,741.167 186.5,742.5 Z"/></g>
<g><path style="opacity:0.004" fill="#000000" d="M 364.5,763.5 C 366.628,762.371 368.961,762.204 371.5,763C 369.19,763.497 366.857,763.663 364.5,763.5 Z"/></g>
</svg>
